<svg width="66" height="14" viewBox="0 0 66 14" fill="none" xmlns="http://www.w3.org/2000/svg">
<path d="M22.093 3.50488L22.1149 3.50488C22.2461 3.50488 22.3227 3.60333 22.3227 3.73458L22.3227 9.63014C22.3227 9.72858 22.2461 9.83796 22.1149 9.83796C22.0164 9.83796 21.9071 9.76139 21.9071 9.63014L21.9071 3.71271C21.9071 3.60333 21.9836 3.50488 22.093 3.50488ZM16.4818 3.81115L20.3429 3.81115C20.4742 3.81115 20.5508 3.9424 20.5508 4.04084C20.5508 4.13929 20.4742 4.24866 20.3429 4.24866L16.6897 4.24866L16.6897 6.7097L19.9929 6.7097C20.0914 6.7097 20.2007 6.78627 20.2007 6.91753C20.2007 7.01597 20.1242 7.12535 19.9929 7.12535L16.7225 7.12534L16.7225 9.66295C16.7006 9.79421 16.5912 9.89264 16.4709 9.89264C16.3397 9.89264 16.2412 9.79421 16.2412 9.66295L16.2412 4.05178L16.2631 4.05178C16.26 4.02127 16.2634 3.99045 16.273 3.96133C16.2826 3.93221 16.2983 3.90544 16.3189 3.88275C16.3395 3.86006 16.3647 3.84196 16.3928 3.82962C16.4208 3.81729 16.4512 3.81099 16.4818 3.81115ZM27.6932 5.63778C27.6932 5.50653 27.5948 5.42996 27.4854 5.42996C27.3542 5.42996 27.2776 5.52841 27.2776 5.63778L27.2776 8.09882C27.2776 8.94105 26.5885 9.59732 25.7463 9.57545C24.8494 9.57545 24.3353 8.99574 24.3353 8.07695L24.3353 5.63778C24.3353 5.50653 24.2369 5.42996 24.1275 5.42996C24.029 5.42996 23.9197 5.5284 23.9197 5.63778L23.9196 8.15351C23.9196 9.19262 24.5869 9.95827 25.6807 9.95827C26.3479 9.98015 26.9823 9.63014 27.2885 9.03949L27.2885 9.67389C27.2885 9.80514 27.387 9.88171 27.4964 9.88171C27.6276 9.88171 27.7042 9.78327 27.7042 9.67389L27.6823 9.67389L27.6823 5.63778L27.6932 5.63778ZM31.5762 5.6706C31.5762 5.76904 31.4778 5.84561 31.3684 5.84561L29.9574 5.84561L29.9574 8.6676C29.9574 9.302 30.3183 9.5317 30.8543 9.5317C31.0293 9.5317 31.2153 9.50982 31.3684 9.45513C31.4668 9.45513 31.5434 9.5317 31.5434 9.63014C31.5434 9.7067 31.4887 9.78327 31.4121 9.80515C31.2043 9.88171 30.9746 9.90359 30.7777 9.90359C30.1105 9.90359 29.5527 9.52076 29.5527 8.71135L29.5527 5.84561L29.0714 5.84561C28.973 5.84561 28.8636 5.74716 28.8636 5.63779C28.8636 5.53934 28.962 5.46278 29.0714 5.46278L29.5527 5.46278L29.5527 4.24867C29.5527 4.15022 29.6293 4.04085 29.7277 4.04085L29.7496 4.04085C29.848 4.04085 29.9574 4.13929 29.9574 4.24867L29.9574 5.46278L31.3684 5.46278C31.4778 5.46278 31.5762 5.56122 31.5762 5.6706ZM34.8576 5.84561C34.956 5.84561 35.0654 5.76904 35.0654 5.6706C35.0654 5.57216 34.967 5.46278 34.8576 5.46278L33.4466 5.46278L33.4466 4.24867C33.4466 4.15023 33.3482 4.04085 33.2388 4.04085L33.2169 4.04085C33.1185 4.04085 33.0419 4.13929 33.0419 4.24867L33.0419 5.46278L32.5606 5.46278C32.4622 5.46278 32.3528 5.53934 32.3528 5.63779C32.3528 5.73623 32.4512 5.84561 32.5606 5.84561L33.0419 5.84561L33.0419 8.71135C33.0419 9.52076 33.5997 9.90359 34.2669 9.90359C34.4748 9.90359 34.7045 9.88171 34.9013 9.80515C34.9779 9.78327 35.0326 9.7067 35.0326 9.63014C35.0326 9.5317 34.956 9.45513 34.8576 9.45513C34.7045 9.50982 34.5295 9.5317 34.3435 9.5317C33.8076 9.5317 33.4466 9.302 33.4466 8.6676L33.4466 5.84561L34.8576 5.84561ZM35.8311 7.65037C35.8311 6.35969 36.728 5.34246 37.9312 5.34246C39.189 5.34246 39.9766 6.35969 39.9766 7.65037C39.9766 7.74881 39.8781 7.85819 39.7687 7.85819L36.2905 7.85819C36.367 8.95199 37.1655 9.58639 38.0296 9.58639C38.5656 9.58639 39.1015 9.35669 39.4625 8.97386C39.4843 8.95199 39.539 8.91917 39.5937 8.91917C39.6922 8.91917 39.8016 9.01761 39.8016 9.12699C39.8016 9.18168 39.7797 9.22544 39.725 9.28013C39.2875 9.7614 38.6531 10.013 38.0077 9.99109C36.8264 9.99109 35.8311 9.0723 35.8311 7.68318L35.8311 7.65037ZM41.6391 6.73158C41.9235 5.99874 42.6126 5.46278 43.4001 5.40809C43.5314 5.40809 43.6298 5.50653 43.6298 5.65966C43.6298 5.75811 43.5533 5.88936 43.422 5.88936L43.4001 5.88936C42.4485 5.9878 41.6391 6.67689 41.6391 8.09883L41.6391 9.72858C41.6172 9.85984 41.5407 9.9364 41.4094 9.9364C41.311 9.9364 41.2016 9.83796 41.2016 9.72858L41.2016 5.65966C41.2235 5.52841 41.3 5.45184 41.4313 5.45184C41.5297 5.45184 41.6391 5.55029 41.6391 5.65966L41.6391 6.73158ZM50.3785 5.1784C50.0723 5.1784 49.8207 5.38622 49.7441 5.68154L49.0004 8.04414L48.2566 5.68154C48.18 5.37528 47.8956 5.14558 47.5675 5.14558L47.4909 5.14558C47.1628 5.14558 46.8784 5.3534 46.8018 5.68154L46.0581 8.02226L45.3471 5.65967C45.2705 5.37528 45.0189 5.15652 44.7127 5.15652L44.6908 5.15652C44.3627 5.15652 44.1002 5.44091 44.1002 5.76904C44.1002 5.86749 44.122 5.97686 44.1549 6.07531L45.3033 9.35669C45.3799 9.68483 45.6643 9.91453 46.0143 9.9364L46.069 9.9364C46.3971 9.9364 46.6815 9.70671 46.78 9.37857L47.5237 7.03785L48.2675 9.37857C48.3441 9.70671 48.6503 9.9364 48.9785 9.9364L49.0332 9.9364C49.3941 9.9364 49.7004 9.70671 49.777 9.35669L50.9254 6.05343C50.9473 5.97687 50.9801 5.87842 50.9801 5.80186L50.9801 5.77998C50.9692 5.44091 50.7176 5.1784 50.3785 5.1784ZM52.1724 5.40809C52.6536 5.25496 53.1458 5.15652 53.6599 5.1784C54.3709 5.1784 54.885 5.38622 55.2678 5.71436C55.6288 6.11906 55.8038 6.65502 55.7819 7.19098L55.7819 9.26919C55.7819 9.63014 55.4975 9.90359 55.1475 9.90359C54.8194 9.90359 54.535 9.67389 54.5131 9.34575C54.1521 9.72858 53.6381 9.95828 53.1021 9.92547C52.2599 9.92547 51.5161 9.42232 51.5161 8.50353C51.5161 7.4863 52.2817 7.00503 53.3865 7.00503C53.7693 7.00503 54.1521 7.05972 54.5131 7.18004L54.5131 7.10347C54.5131 6.54564 54.185 6.26125 53.5177 6.26125C53.2115 6.26125 52.9052 6.28313 52.5989 6.39251C52.5443 6.41438 52.4677 6.41438 52.4239 6.41438C52.1177 6.43626 51.8661 6.20656 51.8661 5.91124C51.8442 5.69248 51.9645 5.48466 52.1724 5.40809ZM59.7196 5.61592C59.7961 5.33153 60.0477 5.15652 60.3321 5.15652C60.693 5.15652 60.9665 5.44091 60.9665 5.76905L60.9665 5.79092C60.9665 5.88936 60.9446 5.99874 60.8899 6.09719L59.5117 9.37857C59.3805 9.70671 59.0742 9.91453 58.7461 9.93641L58.6695 9.93641C58.3086 9.91453 58.0351 9.68483 57.9257 9.35669L56.4929 6.07531C56.4382 5.97687 56.4163 5.86749 56.4163 5.76905C56.4382 5.40809 56.7226 5.15652 57.0507 5.15652C57.357 5.15652 57.6085 5.36434 57.6851 5.63779L58.6804 8.30665L59.7196 5.61592ZM61.4915 7.74882C61.5462 9.01762 62.64 10.013 63.9197 9.93641C64.5104 9.93641 65.0682 9.7614 65.5276 9.37857C65.6589 9.28013 65.7026 9.14887 65.7026 8.99574L65.7026 8.97387C65.7026 8.68948 65.4729 8.47072 65.1885 8.47072C65.0901 8.47072 64.9588 8.4926 64.8823 8.56916C64.5979 8.77699 64.2697 8.8973 63.9307 8.87543C63.3728 8.8973 62.8806 8.51447 62.8041 7.95664L65.4401 7.95664C65.7682 7.93476 66.0307 7.65037 65.9979 7.32224L65.9979 7.22379C65.9979 6.07531 65.0026 5.11277 63.7775 5.14558C62.4212 5.14558 61.4696 6.23938 61.4696 7.56287L61.4696 7.74882L61.4915 7.74882Z" fill="#10112B"/>
<path d="M36.2559 7.44363C36.3324 6.48109 37.0215 5.7373 37.8966 5.7373C38.8919 5.73731 39.4279 6.54671 39.4826 7.44363L36.2559 7.44363ZM54.5222 8.20929C54.5222 8.71243 54.0847 9.0187 53.4722 8.99682C53.0675 8.99682 52.7612 8.789 52.7612 8.43898L52.7612 8.41711C52.7612 8.03428 53.1222 7.78271 53.68 7.78271C53.9644 7.78271 54.2707 7.85927 54.5222 7.95771L54.5222 8.20929ZM63.7867 6.1967C63.2507 6.1967 62.8898 6.57953 62.7913 7.19206L64.7602 7.19206C64.6836 6.60141 64.3226 6.1967 63.7867 6.1967Z" fill="#FDF6EA"/>
<path d="M9.63366 0.584864C15.387 -0.279233 11.7009 4.62097 9.91805 5.99915C11.1431 6.93982 12.401 8.26331 12.9369 9.7618C13.9323 12.5072 11.4822 12.9119 9.63366 12.2228C7.61014 11.5119 5.82725 9.9915 4.64595 8.20861C4.31781 8.20861 3.95686 8.15392 3.61779 8.05548C4.285 9.93681 4.56939 11.8619 4.38344 13.437C4.38344 10.2649 2.87401 7.11482 0.697355 4.48971C-0.0683016 3.57092 0.71923 2.89277 1.40832 3.77874C1.87865 4.42408 2.30523 5.0913 2.68806 5.78039C3.44278 3.19903 7.11793 0.945816 9.63366 0.584864ZM8.81331 5.25537C9.93992 4.56628 13.3635 0.891127 10.1696 1.21927C8.33204 1.42709 6.1007 3.12247 5.18191 4.21626C6.46165 4.06313 7.76327 4.62097 8.81331 5.25537ZM5.64131 8.11017C6.66947 9.25866 8.06953 10.3743 9.57897 10.779C10.454 11.0087 11.4165 10.9103 11.0665 9.66336C10.7056 8.51488 9.78679 7.50859 8.88988 6.74293C8.63831 6.91794 8.35392 7.10388 8.06953 7.2242C7.30388 7.65078 6.48353 7.95704 5.64131 8.11017Z" fill="#EBA12A"/>
<path d="M5.14904 5.02599C6.02408 4.94942 6.96474 5.40882 7.68665 5.86821C6.99755 6.19635 6.2319 6.40417 5.43343 6.44792C4.26307 6.45886 4.02243 5.13537 5.14904 5.02599Z" fill="#FDF6EA"/>
</svg>
