<svg width="60" height="14" viewBox="0 0 60 14" fill="none" xmlns="http://www.w3.org/2000/svg">
<path d="M4.79736 3.17041C3.68408 3.17041 2.79785 3.73438 2.34375 4.62061H2.31445V3.29492H0.783691V13.5488H2.36572V9.73291H2.40234C2.8418 10.5898 3.7207 11.1318 4.82666 11.1318C6.76025 11.1318 8.04199 9.58643 8.04199 7.14746C8.04199 4.7085 6.75293 3.17041 4.79736 3.17041ZM4.37988 9.7915C3.16406 9.7915 2.3584 8.75146 2.3584 7.14746C2.3584 5.55811 3.17139 4.50342 4.37988 4.50342C5.63232 4.50342 6.41602 5.53613 6.41602 7.14746C6.41602 8.76611 5.63232 9.7915 4.37988 9.7915ZM11.6604 9.87939C10.8108 9.87939 10.2542 9.43994 10.2542 8.76611C10.2542 8.10693 10.7889 7.68945 11.7337 7.62354L13.6307 7.50635V8.11426C13.6307 9.11768 12.7664 9.87939 11.6604 9.87939ZM11.221 11.1318C12.2317 11.1318 13.2059 10.5898 13.6526 9.73291H13.6893V11H15.2054V5.68994C15.2054 4.14453 14.0115 3.15576 12.1438 3.15576C10.2396 3.15576 9.05303 4.18115 8.96514 5.57275H10.4593C10.5984 4.88428 11.1697 4.44482 12.0853 4.44482C13.0521 4.44482 13.6307 4.95752 13.6307 5.81445V6.40771L11.5213 6.53223C9.69023 6.63477 8.65752 7.4624 8.65752 8.81006C8.65752 10.1943 9.71221 11.1318 11.221 11.1318ZM17.2052 13.8711C18.8092 13.8711 19.5636 13.2705 20.2228 11.4028L23.1158 3.29492H21.4459L19.4903 9.56445H19.4684L17.5128 3.29492H15.7989L18.5821 11.0073C18.5821 11.0146 18.443 11.4688 18.443 11.4834C18.2013 12.2744 17.8131 12.582 17.0733 12.582C16.9415 12.582 16.6778 12.582 16.5606 12.5527V13.8345C16.6778 13.8564 17.0807 13.8711 17.2052 13.8711Z" fill="#8DD100"/>
<path d="M27.0565 11.1465C29.2611 11.1465 30.7113 9.63037 30.7113 7.14746C30.7113 4.67188 29.2538 3.15576 27.0565 3.15576C24.8593 3.15576 23.4018 4.67188 23.4018 7.14746C23.4018 9.63037 24.852 11.1465 27.0565 11.1465ZM27.0565 9.84277C25.8188 9.84277 25.0131 8.86133 25.0131 7.14746C25.0131 5.44092 25.8188 4.45947 27.0565 4.45947C28.2943 4.45947 29.1 5.44092 29.1 7.14746C29.1 8.86133 28.3017 9.84277 27.0565 9.84277ZM31.6345 11H33.2165V6.51025C33.2165 5.31641 33.9343 4.52539 35.0476 4.52539C36.1462 4.52539 36.6882 5.1626 36.6882 6.31982V11H38.2775V6.01221C38.2775 4.24707 37.3034 3.16309 35.6042 3.16309C34.4177 3.16309 33.5974 3.70508 33.1799 4.58398H33.1433V3.29492H31.6345V11ZM39.5669 11H41.1489V0.431152H39.5669V11ZM42.5262 11H44.1082V3.29492H42.5262V11ZM43.3172 2.16699C43.8299 2.16699 44.24 1.76416 44.24 1.26611C44.24 0.760742 43.8299 0.35791 43.3172 0.35791C42.8118 0.35791 42.4017 0.760742 42.4017 1.26611C42.4017 1.76416 42.8118 2.16699 43.3172 2.16699ZM45.4269 11H47.0089V6.51025C47.0089 5.31641 47.7267 4.52539 48.8399 4.52539C49.9386 4.52539 50.4806 5.1626 50.4806 6.31982V11H52.0699V6.01221C52.0699 4.24707 51.0958 3.16309 49.3966 3.16309C48.2101 3.16309 47.3897 3.70508 46.9723 4.58398H46.9356V3.29492H45.4269V11ZM56.5233 4.43018C57.6293 4.43018 58.3764 5.25781 58.413 6.43701H54.5604C54.641 5.27246 55.4174 4.43018 56.5233 4.43018ZM58.4057 8.73682C58.1933 9.41064 57.5268 9.86475 56.6259 9.86475C55.3588 9.86475 54.5531 8.97852 54.5531 7.63818V7.54297H59.995V7.00098C59.995 4.66455 58.662 3.15576 56.5233 3.15576C54.348 3.15576 52.9564 4.76709 52.9564 7.18408C52.9564 9.61572 54.3261 11.1465 56.5893 11.1465C58.3544 11.1465 59.6874 10.1431 59.9071 8.73682H58.4057Z" fill="#61666C"/>
</svg>
