<svg width="62" height="16" viewBox="0 0 62 16" fill="none" xmlns="http://www.w3.org/2000/svg">
<path d="M23.1768 3.57715H19.7404C19.5022 3.57715 19.2981 3.75692 19.264 4.00861L17.869 13.3029C17.852 13.4647 17.9541 13.6265 18.1072 13.6445C18.1242 13.6445 18.1412 13.6445 18.1582 13.6445H19.7914C20.0296 13.6445 20.2337 13.4647 20.2678 13.213L20.642 10.7142C20.676 10.4625 20.8802 10.2827 21.1184 10.2827H22.2071C24.4698 10.2827 25.7797 9.13216 26.12 6.83105C26.2731 5.82432 26.12 5.03332 25.6776 4.494C25.2013 3.90074 24.3337 3.57715 23.1768 3.57715ZM23.5851 6.97487C23.398 8.26924 22.4623 8.26924 21.5437 8.26924H21.0333L21.3906 5.8423C21.4076 5.69848 21.5267 5.59061 21.6798 5.59061H21.9179C22.5304 5.59061 23.1258 5.59061 23.432 5.96814C23.6022 6.18387 23.6532 6.50746 23.5851 6.97487ZM33.4352 6.93892H31.785C31.6489 6.93892 31.5298 7.04678 31.4958 7.1906L31.4278 7.67599L31.3087 7.49622C30.9514 6.95689 30.1518 6.77712 29.3693 6.77712C27.549 6.77712 26.0009 8.23329 25.6947 10.2647C25.5415 11.2894 25.7627 12.2602 26.3071 12.9254C26.8004 13.5546 27.532 13.8063 28.3826 13.8063C29.8456 13.8063 30.6622 12.8175 30.6622 12.8175L30.5942 13.3029C30.5772 13.4647 30.6792 13.6265 30.8323 13.6445C30.8494 13.6445 30.8664 13.6445 30.8834 13.6445H32.3634C32.6016 13.6445 32.8058 13.4647 32.8398 13.213L33.7244 7.26251C33.7414 7.10071 33.6394 6.93892 33.4862 6.92094C33.4692 6.93892 33.4522 6.93892 33.4352 6.93892ZM31.1556 10.3007C31.0025 11.2894 30.2539 11.9546 29.3012 11.9546C28.8249 11.9546 28.4506 11.7928 28.1954 11.4872C27.9573 11.1816 27.8552 10.7501 27.9403 10.2647C28.0934 9.27597 28.8419 8.59283 29.7776 8.59283C30.2369 8.59283 30.6282 8.75463 30.8664 9.06025C31.1215 9.38384 31.2236 9.83327 31.1556 10.3007ZM42.1965 6.93892H40.5463C40.3932 6.93892 40.2401 7.0288 40.155 7.15464L37.8754 10.6962L36.9057 7.29846C36.8376 7.08274 36.6505 6.93892 36.4464 6.93892H34.8302C34.6771 6.93892 34.541 7.06476 34.541 7.24453C34.541 7.28049 34.541 7.31644 34.558 7.33442L36.3783 12.9793L34.6771 15.5321C34.592 15.6759 34.609 15.8557 34.7451 15.9456C34.7962 15.9815 34.8472 15.9995 34.9153 15.9995H36.5655C36.7186 15.9995 36.8717 15.9276 36.9567 15.7838L42.4517 7.40633C42.5367 7.26251 42.5027 7.08274 42.3836 6.99285C42.2986 6.95689 42.2475 6.93892 42.1965 6.93892Z" fill="#253B80"/>
<path d="M47.6573 3.57715H44.2208C43.9827 3.57715 43.7785 3.75692 43.7445 4.00861L42.3495 13.3029C42.3325 13.4647 42.4346 13.6265 42.5877 13.6445C42.6047 13.6445 42.6217 13.6445 42.6387 13.6445H44.391C44.5611 13.6445 44.6972 13.5186 44.7142 13.3389L45.1055 10.6962C45.1395 10.4445 45.3437 10.2647 45.5818 10.2647H46.6706C48.9332 10.2647 50.2432 9.11418 50.5834 6.81308C50.7365 5.80634 50.5834 5.01534 50.1411 4.47602C49.6648 3.90074 48.7971 3.57715 47.6573 3.57715ZM48.0486 6.97487C47.8615 8.26924 46.9258 8.26924 46.0071 8.26924H45.4968L45.854 5.8423C45.871 5.69848 45.9901 5.59061 46.1432 5.59061H46.3814C46.9938 5.59061 47.5893 5.59061 47.8955 5.96814C48.0656 6.18387 48.1166 6.50746 48.0486 6.97487ZM57.9157 6.93892H56.2655C56.1294 6.93892 56.0103 7.04678 55.9763 7.1906L55.9082 7.67599L55.7891 7.49622C55.4319 6.9569 54.6493 6.77712 53.8498 6.77712C52.0295 6.77712 50.4813 8.23329 50.1751 10.2647C50.022 11.2894 50.2432 12.2602 50.7876 12.9254C51.2809 13.5546 52.0124 13.8063 52.863 13.8063C54.3261 13.8063 55.1427 12.8175 55.1427 12.8175L55.0746 13.3029C55.0576 13.4647 55.1597 13.6265 55.3128 13.6445C55.3298 13.6445 55.3468 13.6445 55.3638 13.6445H56.8439C57.0821 13.6445 57.2862 13.4647 57.3202 13.213L58.2049 7.26251C58.2219 7.10071 58.1198 6.93892 57.9667 6.92094C57.9327 6.93892 57.9157 6.93892 57.9157 6.93892ZM55.619 10.3007C55.4659 11.2894 54.7174 11.9546 53.7647 11.9546C53.2884 11.9546 52.9141 11.7928 52.6589 11.4872C52.4207 11.1816 52.3187 10.7501 52.4037 10.2647C52.5568 9.27598 53.3054 8.59283 54.241 8.59283C54.7004 8.59283 55.0916 8.75463 55.3298 9.06025C55.585 9.38384 55.6871 9.83327 55.619 10.3007ZM59.8381 3.82883L58.426 13.3029C58.409 13.4647 58.5111 13.6265 58.6642 13.6445C58.6812 13.6445 58.6982 13.6445 58.7153 13.6445H60.1273C60.3654 13.6445 60.5696 13.4647 60.6036 13.213L61.9986 3.91872C62.0156 3.75692 61.9135 3.59513 61.7604 3.57715C61.7434 3.57715 61.7264 3.57715 61.7094 3.57715H60.1273C59.9912 3.57715 59.8721 3.68501 59.8381 3.82883Z" fill="#179BD7"/>
<path d="M3.64448 15.4603L3.89967 13.6985L3.32125 13.6805H0.53125L2.47064 0.682882C2.48765 0.592995 2.5557 0.539062 2.62375 0.539062H7.33613C8.90126 0.539062 9.97303 0.880633 10.5344 1.56377C10.8066 1.88737 10.9597 2.21096 11.0448 2.58848C11.1299 2.96601 11.1299 3.43342 11.0448 3.99072V4.02667V4.38622L11.317 4.54802C11.5211 4.65588 11.6913 4.7997 11.8444 4.97947C12.0655 5.24913 12.2186 5.5907 12.2697 6.00418C12.3377 6.41766 12.3207 6.92103 12.2016 7.49631C12.0825 8.14349 11.8784 8.71877 11.6232 9.18618C11.385 9.59966 11.0788 9.95921 10.7045 10.2468C10.3473 10.5165 9.939 10.7143 9.47967 10.8401C9.02034 10.9659 8.50997 11.0199 7.93156 11.0199H7.55729C7.30211 11.0199 7.04693 11.1277 6.84278 11.2895C6.63863 11.4693 6.51955 11.721 6.46851 11.9906L6.43449 12.1524L6.00918 15.2625L5.99217 15.3704C5.99217 15.4063 5.97516 15.4243 5.95814 15.4423C5.94113 15.4603 5.92412 15.4603 5.90711 15.4603H3.64448Z" fill="#253B80"/>
<path d="M11.555 4.0625C11.538 4.15239 11.521 4.26025 11.504 4.35014C10.8915 7.71191 8.76502 8.88044 6.04307 8.88044H4.66508C4.34185 8.88044 4.05264 9.13212 4.0016 9.47369L3.3041 14.2197L3.09996 15.568C3.06593 15.7658 3.20203 15.9635 3.38916 15.9995C3.40618 15.9995 3.42319 15.9995 3.4402 15.9995H5.88996C6.17917 15.9995 6.43435 15.7837 6.46837 15.4781L6.48539 15.3523L6.94472 12.2602L6.97874 12.0984C7.02978 11.7928 7.26795 11.577 7.55716 11.577H7.93142C10.2961 11.577 12.1675 10.5523 12.7119 7.62202C12.933 6.39956 12.8139 5.35687 12.2185 4.63778C12.0484 4.38609 11.8102 4.20632 11.555 4.0625Z" fill="#179BD7"/>
<path d="M10.9095 3.79328C10.7053 3.73934 10.5182 3.68541 10.314 3.64946C9.90576 3.57755 9.49746 3.55957 9.08917 3.55957H5.41453C5.12533 3.55957 4.87014 3.7753 4.83612 4.08091L4.03654 9.33031L4.01953 9.4921C4.07057 9.15053 4.35978 8.89885 4.68301 8.89885H6.061C8.76594 8.89885 10.8925 7.73032 11.5219 4.36855C11.5389 4.26069 11.5559 4.1708 11.573 4.08091C11.4028 3.99103 11.2327 3.91912 11.0626 3.84721C11.0115 3.81125 10.9605 3.81125 10.9095 3.79328Z" fill="#222D65"/>
<path d="M4.81919 4.08086C4.87023 3.77525 5.1084 3.55952 5.3976 3.55952H9.08925C9.53157 3.55952 9.93986 3.59548 10.3141 3.64941C10.5693 3.68536 10.8075 3.75727 11.0627 3.82918C11.2498 3.90109 11.4199 3.973 11.573 4.06289C11.7602 2.82245 11.573 1.97751 10.9266 1.20448C10.2291 0.359548 8.95316 0 7.337 0H2.62461C2.30138 0 2.01217 0.251684 1.96114 0.593254L0.00473329 13.7167C-0.0292911 13.9504 0.123819 14.1662 0.344978 14.2021C0.36199 14.2021 0.379002 14.2021 0.413026 14.2021H3.3051L4.03663 9.31228C4.03663 9.33026 4.81919 4.08086 4.81919 4.08086Z" fill="#253B80"/>
</svg>
