<svg width="66" height="12" viewBox="0 0 66 12" fill="none" xmlns="http://www.w3.org/2000/svg">
<path d="M9.29568 1.11035L0.544244 1.11035C0.250352 1.11035 2.18865e-08 1.3607 4.8531e-08 1.66548L1.35125e-07 2.656C1.6177e-07 2.96078 0.250352 3.21113 0.544244 3.21113L9.29568 3.21113C9.60046 3.21113 9.83993 2.96078 9.85081 2.656L9.85081 1.67636C9.85081 1.3607 9.60046 1.11035 9.29568 1.11035ZM9.29569 6.60722L0.544244 6.60722C0.402741 6.60722 0.261238 6.66164 0.163274 6.77049C0.0544249 6.87934 5.1576e-07 7.00995 5.29082e-07 7.16234L6.15676e-07 8.15287C6.42321e-07 8.45764 0.250353 8.708 0.544245 8.708L9.29569 8.708C9.60046 8.708 9.83993 8.46853 9.85082 8.15287L9.85082 7.16234C9.83993 6.84668 9.60046 6.60722 9.29569 6.60722ZM5.47509 9.3502L0.544245 9.3502C0.402741 9.3502 0.261238 9.40463 0.163274 9.51348C0.06531 9.62232 7.55559e-07 9.75294 7.68882e-07 9.90533L8.55476e-07 10.8959C8.82121e-07 11.2006 0.250353 11.451 0.544245 11.451L5.46421 11.451C5.76899 11.451 6.00845 11.2006 6.00845 10.9067L6.00845 9.91622C6.01934 9.58967 5.77987 9.33932 5.47509 9.3502ZM9.85082 3.85334L0.544244 3.85334C0.402741 3.85334 0.261237 3.90776 0.163273 4.01661C0.0653095 4.12546 2.75008e-07 4.25608 2.88331e-07 4.40847L3.74925e-07 5.39899C4.01569e-07 5.70377 0.250353 5.95412 0.544244 5.95412L9.83993 5.95412C10.1447 5.95412 10.3842 5.70377 10.3842 5.39899L10.3842 4.40847C10.3951 4.10369 10.1447 3.86422 9.85082 3.85334Z" fill="#00C3F7"/>
<path d="M20.0282 3.33077C19.7561 3.04777 19.4405 2.83007 19.0813 2.67768C18.7221 2.52529 18.3411 2.4491 17.9492 2.4491C17.5683 2.43821 17.1982 2.52529 16.8499 2.68856C16.6213 2.79741 16.4145 2.9498 16.2403 3.13485L16.2403 2.96069C16.2403 2.87361 16.2077 2.78653 16.1532 2.72122C16.0988 2.65591 16.0117 2.61237 15.9138 2.61237L14.7055 2.61237C14.6185 2.61237 14.5314 2.64503 14.477 2.72122C14.4117 2.78653 14.379 2.87361 14.3899 2.96069L14.3899 11.1026C14.3899 11.1897 14.4225 11.2767 14.477 11.342C14.5423 11.4074 14.6185 11.44 14.7055 11.44L15.9464 11.44C16.0335 11.44 16.1097 11.4074 16.175 11.342C16.2403 11.2876 16.2838 11.2005 16.273 11.1026L16.273 8.31605C16.4471 8.51197 16.6757 8.65348 16.9261 8.74056C17.2526 8.86029 17.59 8.9256 17.9384 8.9256C18.3302 8.9256 18.7221 8.8494 19.0813 8.69702C19.4405 8.54463 19.767 8.32693 20.0391 8.04392C20.3221 7.75003 20.5398 7.40172 20.6922 7.02075C20.8664 6.59624 20.9426 6.13907 20.9317 5.68191C20.9426 5.22474 20.8555 4.76757 20.6922 4.33218C20.529 3.97298 20.3113 3.62466 20.0282 3.33077ZM18.918 6.28058C18.8527 6.45473 18.7547 6.60712 18.6241 6.74862C18.3737 7.02075 18.0145 7.17313 17.6445 7.17313C17.4594 7.17313 17.2744 7.14048 17.1002 7.0534C16.9369 6.97721 16.7846 6.87924 16.6539 6.74862C16.5233 6.61801 16.4254 6.45473 16.36 6.28058C16.2185 5.91049 16.2185 5.50775 16.36 5.13766C16.4254 4.96351 16.5342 4.81112 16.6539 4.6805C16.7846 4.54988 16.9369 4.44103 17.1002 4.36484C17.2744 4.28864 17.4594 4.2451 17.6445 4.2451C17.8404 4.2451 18.0145 4.27776 18.1996 4.36484C18.3629 4.44103 18.5152 4.53899 18.635 4.66961C18.7656 4.80023 18.8527 4.95262 18.9289 5.12678C19.0595 5.50775 19.0486 5.91049 18.918 6.28058ZM27.5824 2.62326L26.3524 2.62326C26.2653 2.62326 26.1782 2.65591 26.1238 2.72122C26.0585 2.78653 26.0258 2.87361 26.0258 2.97157L26.0258 3.12396C25.8734 2.93892 25.6775 2.79741 25.4707 2.69945C25.1333 2.53618 24.7632 2.45998 24.3931 2.45998C23.5985 2.45998 22.8474 2.77564 22.2814 3.33077C21.9875 3.62466 21.7589 3.97298 21.6066 4.35395C21.4324 4.77846 21.3453 5.23563 21.3562 5.70367C21.3453 6.16084 21.4324 6.618 21.6066 7.0534C21.7698 7.43437 21.9875 7.78269 22.2814 8.07658C22.8365 8.64259 23.5985 8.95825 24.3822 8.95825C24.7523 8.96914 25.1224 8.88206 25.4598 8.71879C25.6666 8.60994 25.8734 8.46844 26.0258 8.29428L26.0258 8.45755C26.0258 8.54463 26.0585 8.63171 26.1238 8.69702C26.1891 8.75144 26.2653 8.79498 26.3524 8.79498L27.5824 8.79498C27.6694 8.79498 27.7565 8.76233 27.8109 8.69702C27.8762 8.63171 27.9089 8.54463 27.9089 8.45755L27.9089 2.98245C27.9089 2.89538 27.8762 2.8083 27.8218 2.74299C27.7565 2.66679 27.6694 2.62326 27.5824 2.62326ZM25.917 6.28057C25.8517 6.45473 25.7537 6.60712 25.6231 6.74862C25.4925 6.87924 25.351 6.98809 25.1877 7.06428C24.8394 7.22756 24.4366 7.22756 24.0883 7.06428C23.925 6.98809 23.7726 6.87924 23.642 6.74862C23.5114 6.618 23.4134 6.45473 23.3481 6.28057C23.2175 5.91049 23.2175 5.50775 23.3481 5.13766C23.4134 4.9635 23.5114 4.822 23.642 4.6805C23.7726 4.54988 23.9141 4.44103 24.0883 4.36484C24.4366 4.20156 24.8394 4.20156 25.1768 4.36484C25.3401 4.44103 25.4925 4.53899 25.6122 4.66961C25.7319 4.80023 25.8299 4.95262 25.9061 5.12678C26.0585 5.50775 26.0585 5.91049 25.917 6.28057ZM39.8387 5.5404C39.6646 5.38801 39.4578 5.25739 39.2401 5.17032C39.0115 5.07235 38.7611 5.00704 38.5217 4.95262L37.5856 4.76757C37.3461 4.72403 37.1719 4.65873 37.0849 4.58253C37.0087 4.52811 36.9542 4.44103 36.9542 4.34306C36.9542 4.2451 37.0087 4.15802 37.1284 4.08183C37.2917 3.99475 37.4658 3.95121 37.6509 3.96209C37.8903 3.96209 38.1298 4.01652 38.3475 4.1036C38.5652 4.20156 38.772 4.29953 38.9679 4.43014C39.2401 4.6043 39.4795 4.57165 39.6428 4.37572L40.0891 3.86413C40.1762 3.77705 40.2197 3.6682 40.2306 3.54847C40.2197 3.41785 40.1544 3.309 40.0564 3.22192C39.8714 3.05865 39.5666 2.88449 39.1639 2.71033C38.7611 2.53617 38.2495 2.4491 37.6509 2.4491C37.2808 2.43821 36.9216 2.49263 36.5733 2.60148C36.2794 2.69945 35.9964 2.84095 35.746 3.02599C35.5174 3.20015 35.3433 3.41785 35.2127 3.67909C35.0929 3.92944 35.0276 4.20156 35.0276 4.47368C35.0276 4.98527 35.18 5.3989 35.4848 5.70367C35.7895 6.00845 36.1923 6.21526 36.693 6.31323L37.6726 6.53092C37.8794 6.56358 38.0971 6.62889 38.2931 6.72685C38.4019 6.77039 38.4672 6.87924 38.4672 6.99897C38.4672 7.10782 38.4128 7.20579 38.2931 7.29287C38.1733 7.37995 37.9774 7.43437 37.7162 7.43437C37.4549 7.43437 37.1828 7.37995 36.9433 7.26021C36.7148 7.15136 36.508 7.00986 36.312 6.84659C36.2249 6.78128 36.1379 6.72685 36.029 6.68331C35.9202 6.65066 35.7787 6.68331 35.6372 6.80305L35.1038 7.20579C34.9514 7.31464 34.8752 7.49968 34.9188 7.67384C34.9514 7.85888 35.0929 8.03304 35.365 8.23985C36.0399 8.69702 36.8454 8.93648 37.6617 8.91471C38.0427 8.91471 38.4237 8.87117 38.7829 8.76233C39.0986 8.66436 39.3924 8.52286 39.6537 8.32693C39.8931 8.15277 40.0891 7.92419 40.2197 7.65207C40.3503 7.39083 40.4156 7.10782 40.4156 6.81393C40.4265 6.55269 40.3721 6.29146 40.2632 6.05199C40.1544 5.87783 40.0129 5.69279 39.8387 5.5404ZM45.2159 7.03163C45.1614 6.93367 45.0635 6.86835 44.9437 6.84658C44.8349 6.84658 44.7151 6.87924 44.6281 6.94455C44.4757 7.04251 44.3015 7.09694 44.1274 7.10782C44.0729 7.10782 44.0076 7.09694 43.9532 7.08605C43.8879 7.07517 43.8335 7.04251 43.7899 6.99897C43.7355 6.94455 43.692 6.87924 43.6593 6.81393C43.6158 6.70508 43.594 6.59623 43.6049 6.48739L43.6049 4.25599L45.1941 4.25599C45.292 4.25599 45.3791 4.21245 45.4444 4.14714C45.5097 4.08183 45.5533 4.00563 45.5533 3.90767L45.5533 2.96068C45.5533 2.86272 45.5206 2.77564 45.4444 2.72122C45.3791 2.65591 45.292 2.62325 45.205 2.62325L43.6049 2.62325L43.6049 1.09937C43.6049 1.01229 43.5722 0.914327 43.5069 0.859902C43.4416 0.805478 43.3654 0.772824 43.2783 0.761939L42.0375 0.761939C41.9504 0.761939 41.8633 0.794593 41.798 0.859902C41.7327 0.925212 41.6892 1.01229 41.6892 1.09937L41.6892 2.62325L40.9816 2.62325C40.8946 2.62325 40.8075 2.65591 40.7422 2.7321C40.6877 2.79741 40.6551 2.88449 40.6551 2.97157L40.6551 3.91855C40.6551 4.00563 40.6877 4.09271 40.7422 4.15802C40.7966 4.23422 40.8837 4.26687 40.9816 4.26687L41.6892 4.26687L41.6892 6.92278C41.6783 7.23844 41.7436 7.5541 41.8742 7.83711C41.9939 8.07658 42.1463 8.28339 42.3531 8.45755C42.5491 8.62082 42.7776 8.74055 43.028 8.80586C43.2783 8.88206 43.5396 8.9256 43.8008 8.9256C44.1383 8.9256 44.4866 8.87117 44.8131 8.76232C45.1179 8.66436 45.39 8.4902 45.6077 8.26162C45.7492 8.12012 45.7601 7.89153 45.6512 7.72826L45.2159 7.03163ZM51.9427 2.62325L50.7127 2.62325C50.6256 2.62325 50.5494 2.65591 50.4841 2.72122C50.4188 2.78653 50.3862 2.8736 50.3862 2.97157L50.3862 3.12396C50.2338 2.93891 50.0487 2.79741 49.831 2.69945C49.4936 2.53617 49.1235 2.45998 48.7534 2.45998C47.9588 2.45998 47.2078 2.77564 46.6418 3.33077C46.3479 3.62466 46.1193 3.97298 45.9669 4.35395C45.7928 4.77846 45.7057 5.23562 45.7166 5.69279C45.7057 6.14995 45.7928 6.60712 45.9669 7.04251C46.1193 7.42349 46.3588 7.7718 46.6418 8.06569C47.1969 8.63171 47.948 8.94737 48.7426 8.94737C49.1126 8.95825 49.4827 8.87117 49.8202 8.71879C50.0379 8.60994 50.2338 8.46843 50.3862 8.29427L50.3862 8.45755C50.3862 8.54463 50.4188 8.6317 50.4841 8.68613C50.5494 8.75144 50.6256 8.78409 50.7127 8.78409L51.9427 8.78409C52.1278 8.78409 52.2693 8.64259 52.2693 8.45755L52.2693 2.98245C52.2693 2.89537 52.2366 2.80829 52.1822 2.74299C52.1278 2.66679 52.0407 2.62325 51.9427 2.62325ZM50.2882 6.28057C50.2229 6.45473 50.1249 6.60712 49.9943 6.74862C49.8637 6.87924 49.7222 6.98809 49.5589 7.06428C49.3848 7.14048 49.1997 7.18402 49.0038 7.18402C48.8079 7.18402 48.6337 7.14048 48.4595 7.06428C48.2963 6.98809 48.1439 6.87924 48.0133 6.74862C47.8826 6.618 47.7847 6.45473 47.7303 6.28057C47.5996 5.91049 47.5996 5.50775 47.7303 5.13766C47.7956 4.9635 47.8935 4.81111 48.0133 4.68049C48.1439 4.54988 48.2963 4.44103 48.4595 4.36483C48.6337 4.28864 48.8187 4.2451 49.0038 4.2451C49.1888 4.2451 49.3739 4.27775 49.5589 4.36483C49.7222 4.44103 49.8637 4.53899 49.9943 4.66961C50.1249 4.80023 50.2229 4.95262 50.2882 5.12677C50.4297 5.49686 50.4297 5.91049 50.2882 6.28057ZM58.6913 6.94455L57.9838 6.4003C57.8532 6.29145 57.7226 6.2588 57.6137 6.30234C57.5158 6.34588 57.4287 6.41119 57.3525 6.48738C57.2001 6.67243 57.0151 6.8357 56.8191 6.9772C56.6014 7.09694 56.3729 7.16225 56.1334 7.14048C55.8504 7.14048 55.5891 7.06428 55.3606 6.90101C55.132 6.73774 54.9578 6.52004 54.8707 6.24792C54.8054 6.06287 54.7728 5.87783 54.7728 5.69279C54.7728 5.49686 54.8054 5.31182 54.8707 5.11589C54.936 4.94173 55.0231 4.78934 55.1537 4.65872C55.2844 4.5281 55.4259 4.41926 55.5891 4.35395C55.7633 4.27775 55.9483 4.23421 56.1443 4.23421C56.3837 4.22333 56.6232 4.28864 56.83 4.40837C57.0368 4.53899 57.211 4.70226 57.3634 4.89819C57.4287 4.97439 57.5158 5.0397 57.6137 5.08324C57.7226 5.12678 57.8532 5.09412 57.9838 4.98527L58.6913 4.45191C58.7784 4.39749 58.8437 4.31041 58.8764 4.21245C58.9199 4.1036 58.909 3.98386 58.8437 3.8859C58.5716 3.46139 58.2015 3.11307 57.7552 2.86272C57.2872 2.60148 56.7321 2.45998 56.1116 2.45998C55.6762 2.45998 55.2408 2.54706 54.8272 2.71033C54.4353 2.8736 54.087 3.10219 53.7931 3.39608C53.4992 3.68997 53.2598 4.03829 53.0965 4.43014C52.7591 5.24651 52.7591 6.16084 53.0965 6.9772C53.2598 7.35817 53.4884 7.71738 53.7931 8.00038C54.4136 8.60994 55.2408 8.93648 56.1116 8.93648C56.7321 8.93648 57.2872 8.79498 57.7552 8.53374C58.2015 8.28339 58.5825 7.93507 58.8546 7.49968C58.909 7.40171 58.9199 7.28198 58.8873 7.18402C58.8437 7.09694 58.7784 7.00986 58.6913 6.94455ZM65.244 8.21808L63.2956 5.36624L64.961 3.1675C65.0372 3.06953 65.0699 2.92803 65.0263 2.80829C64.9937 2.72122 64.9175 2.63414 64.7107 2.63414L63.3936 2.63414C63.3174 2.63414 63.2412 2.65591 63.1759 2.68856C63.0888 2.7321 63.0235 2.79741 62.98 2.8736L61.652 4.73492L61.3364 4.73492L61.3364 0.337428C61.3364 0.250349 61.3037 0.163268 61.2384 0.0979591C61.1731 0.0326499 61.0969 -4.08344e-06 61.0098 -4.07582e-06L59.7798 -3.96829e-06C59.6927 -3.96068e-06 59.6057 0.03265 59.5403 0.0979593C59.475 0.163269 59.4424 0.239464 59.4424 0.337428L59.4424 8.44666C59.4424 8.54463 59.475 8.62082 59.5403 8.68613C59.6057 8.75144 59.6927 8.78409 59.7798 8.78409L61.0098 8.78409C61.0969 8.78409 61.184 8.75144 61.2384 8.68613C61.3037 8.62082 61.3364 8.53374 61.3364 8.44666L61.3364 6.30234L61.6847 6.30234L63.1324 8.52285C63.2194 8.68613 63.3827 8.78409 63.5569 8.78409L64.9393 8.78409C65.1461 8.78409 65.2331 8.68613 65.2767 8.59905C65.3311 8.46843 65.3202 8.32693 65.244 8.21808ZM34.5704 2.62325L33.1881 2.62325C33.0792 2.62325 32.9813 2.65591 32.9051 2.7321C32.8397 2.79741 32.7962 2.87361 32.7744 2.96068L31.7513 6.74862L31.5009 6.74862L30.4124 2.96069C30.3907 2.88449 30.358 2.8083 30.3036 2.7321C30.2383 2.65591 30.1512 2.61237 30.0532 2.61237L28.6491 2.61237C28.464 2.61237 28.3552 2.66679 28.3008 2.79741C28.2681 2.90626 28.2681 3.026 28.3008 3.13484L30.0423 8.46843C30.075 8.54463 30.1076 8.63171 30.173 8.68613C30.2383 8.75144 30.3362 8.7841 30.4342 8.7841L31.1744 8.7841L31.1091 8.95825L30.9458 9.44807C30.8914 9.60046 30.8043 9.73108 30.6737 9.82904C30.5539 9.91612 30.4124 9.97055 30.26 9.95966C30.1294 9.95966 30.0097 9.92701 29.8899 9.88347C29.7702 9.82904 29.6614 9.76373 29.5634 9.68754C29.4763 9.62223 29.3675 9.58958 29.2477 9.58958L29.2369 9.58958C29.1062 9.60046 28.9865 9.66577 28.9212 9.7855L28.4858 10.4277C28.3116 10.7107 28.4096 10.8849 28.5185 10.9828C28.7579 11.2005 29.03 11.3638 29.3348 11.4618C29.6722 11.5815 30.0206 11.6359 30.3689 11.6359C31.0002 11.6359 31.5227 11.4618 31.9254 11.1243C32.339 10.7543 32.6547 10.2753 32.8071 9.73108L34.8317 3.13484C34.8752 3.01511 34.8861 2.89538 34.8426 2.78653C34.8317 2.71033 34.7555 2.62325 34.5704 2.62325Z" fill="#011B33"/>
</svg>
