<svg width="58" height="18" viewBox="0 0 58 18" fill="none" xmlns="http://www.w3.org/2000/svg">
<g clip-path="url(#clip0_678_2194)">
<path d="M57.8041 5.31121C57.2777 3.82162 55.8428 2.75195 54.1578 2.75195H54.1225C53.027 2.75195 52.0396 3.2031 51.3369 3.92746C50.633 3.2031 49.6456 2.75195 48.5513 2.75195H48.516C47.553 2.75195 46.6728 3.10093 45.9967 3.67835V3.3847C45.9735 3.0922 45.7304 2.86238 45.4302 2.86238H42.8453C42.529 2.86238 42.2738 3.11516 42.2738 3.42902V17.3207C42.2738 17.6348 42.5293 17.8873 42.8453 17.8873H45.4302C45.7183 17.8873 45.9554 17.6743 45.9933 17.3988L45.9921 7.42621C45.9921 7.39131 45.9933 7.35894 45.997 7.32634C46.0383 6.88116 46.3677 6.51542 46.8883 6.4695H47.3648C47.5825 6.48879 47.7662 6.56455 47.9107 6.67889C48.1358 6.85567 48.2608 7.12774 48.2608 7.42621L48.2706 17.3496C48.2706 17.6637 48.5272 17.9176 48.842 17.9176H51.4269C51.732 17.9176 51.9802 17.677 51.9949 17.3774L51.9937 7.41312C51.9925 7.08572 52.1457 6.78978 52.4143 6.61414C52.5468 6.52988 52.7062 6.4734 52.8897 6.45641H53.3662C53.9256 6.50463 54.2636 6.92455 54.2624 7.41312L54.2722 17.3232C54.2722 17.6373 54.5288 17.8899 54.8436 17.8899H57.4285C57.7434 17.8899 58 17.6371 58 17.3232V6.66488C58 5.93799 57.9174 5.62873 57.8041 5.31121ZM40.3044 2.89866H38.8259V0.521005C38.8259 0.235852 38.5925 0.00488281 38.3043 0.00488281C38.2702 0.00488281 38.2375 0.00970424 38.2057 0.0156736C36.5666 0.460852 36.8949 2.70741 33.9028 2.89866H33.6121C33.5683 2.89866 33.527 2.90463 33.4868 2.91312H33.4845L33.4868 2.91427C33.2314 2.97075 33.0393 3.1946 33.0393 3.46414V6.02249C33.0393 6.33404 33.2959 6.58797 33.6119 6.58797H35.1719L35.1695 17.4355C35.1695 17.7448 35.4224 17.995 35.7349 17.995H38.2906C38.602 17.995 38.8549 17.7448 38.8549 17.4355L38.856 6.58797H40.3042C40.619 6.58797 40.8756 6.33404 40.8756 6.02249V3.46437C40.876 3.15259 40.6194 2.89866 40.3044 2.89866Z" fill="#54C1F0"/>
<path d="M31.004 2.89865H28.4191C28.1042 2.89865 27.8488 3.15258 27.8488 3.46414V8.7537C27.8428 9.0811 27.5753 9.3433 27.2433 9.3433H26.1612C25.8258 9.3433 25.5546 9.07628 25.5546 8.74406L25.5448 3.46414C25.5448 3.15258 25.2882 2.89865 24.9734 2.89865H22.3882C22.072 2.89865 21.8168 3.15258 21.8168 3.46414V9.26156C21.8168 11.4636 23.4035 13.0338 25.6297 13.0338C25.6297 13.0338 27.3004 13.0338 27.3514 13.0434C27.653 13.0771 27.8876 13.3274 27.8876 13.6355C27.8876 13.94 27.6576 14.1891 27.3598 14.2263C27.3451 14.2286 27.3317 14.2322 27.3159 14.2347L23.5357 14.2481C23.2195 14.2481 22.9643 14.502 22.9643 14.8136V17.3705C22.9643 17.6834 23.2197 17.936 23.5357 17.936H27.762C29.9895 17.936 31.575 16.367 31.575 14.1638V3.46437C31.5754 3.15258 31.3202 2.89865 31.004 2.89865ZM6.21064 2.89819H0.560512C0.25056 2.89819 0 3.14707 0 3.45289V5.95934C0 5.96416 0.00116 5.96898 0.00116 5.97381C0.00116 5.98575 0 5.99791 0 6.0087V17.3528C0 17.6609 0.233392 17.9124 0.522928 17.9195H3.15659C3.47142 17.9195 3.72801 17.6667 3.72801 17.354L3.73775 13.4663H6.21087C8.28031 13.4663 9.72242 12.0454 9.72242 9.98891V6.38041C9.72219 4.32396 8.28008 2.89819 6.21064 2.89819ZM5.98328 9.16467C5.98328 9.49552 5.71207 9.76506 5.37776 9.76506L3.73752 9.7662V6.60289H5.37776C5.71207 6.60289 5.98328 6.8699 5.98328 7.20212V9.16467ZM16.2978 2.91266H12.711C12.3937 2.91266 12.1371 3.15097 12.1371 3.44324V4.4383C12.1371 4.44427 12.1382 4.45161 12.1382 4.45758C12.1382 4.4647 12.1371 4.47205 12.1371 4.47916V5.84248C12.1371 6.15174 12.4094 6.40429 12.7449 6.40429H16.1604C16.4302 6.44631 16.6444 6.64123 16.6748 6.94567V7.27536C16.6444 7.56534 16.4328 7.77702 16.175 7.80113H14.4838C12.2343 7.80113 10.6319 9.27993 10.6319 11.3568V14.3312C10.6319 16.3959 12.0095 17.8651 14.2429 17.8651H18.9303C19.7717 17.8651 20.4538 17.2346 20.4538 16.4583V6.75235C20.4538 4.39881 19.2282 2.91266 16.2978 2.91266ZM16.7089 13.9912C16.7089 14.0238 16.704 14.055 16.6991 14.0851C16.693 14.1133 16.6849 14.1411 16.6748 14.1682C16.5945 14.392 16.3683 14.5543 16.0996 14.5543H15.0236C14.6882 14.5543 14.4144 14.3016 14.4144 13.9912V13.5086C14.4144 13.5026 14.4132 13.4966 14.4132 13.4904L14.4144 12.2065V11.8048L14.4156 11.8011C14.4167 11.4918 14.6879 11.2416 15.0234 11.2416H16.0994C16.4363 11.2416 16.7086 11.493 16.7086 11.8048V13.9912H16.7089Z" fill="#233266"/>
</g>
<defs>
<clipPath id="clip0_678_2194">
<rect width="58" height="18" fill="white"/>
</clipPath>
</defs>
</svg>
