<svg width="65" height="15" viewBox="0 0 65 15" fill="none" xmlns="http://www.w3.org/2000/svg">
<path d="M6.46558 5.10547L4.58773 12.139H0L0.930257 8.67878L6.46558 5.10547Z" fill="#072654"/>
<path d="M15.923 3C16.886 3.00559 17.5642 3.23497 17.9474 3.6993C18.3305 4.16364 18.4237 4.82378 18.2114 5.69091C18.0716 6.28392 17.7869 6.82657 17.3882 7.25734C16.974 7.7049 16.4666 8.02937 15.9023 8.1972C16.332 8.3035 16.5961 8.63357 16.6789 9.1986L16.6944 9.32168L17.0051 12.1692H15.0894L14.7684 9.1035C14.7633 9.0028 14.7374 8.9021 14.6908 8.81259C14.6442 8.72308 14.5769 8.65035 14.4992 8.59441C14.3387 8.5049 14.1627 8.46014 13.9815 8.45455H13.8727H12.6923L11.7914 12.1636H10L12.2263 3H15.923ZM65 5.4L62.7219 8.94685L60.0348 13.1538L60.0141 13.1762L59.4135 14.1161L59.3928 14.1497L59.3669 14.1944L58.8492 15H57.0682L59.1495 11.828L58.2072 5.62378H60.0555L60.5215 9.66853L62.7789 6.20559L62.8099 6.15524L62.8462 6.0993L62.8824 6.04895L63.162 5.40559H65V5.4ZM49.2192 5.89231C49.5609 6.20559 49.7835 6.63636 49.8612 7.11748C49.9543 7.71608 49.9129 8.33706 49.7524 8.91888C49.6023 9.56224 49.3486 10.1664 48.9965 10.7035C48.6755 11.1958 48.2613 11.6042 47.7798 11.8951C47.3242 12.1636 46.822 12.3035 46.3042 12.3035C45.9366 12.3203 45.5742 12.2196 45.2584 12.0182C45.0151 11.8615 44.8287 11.621 44.7251 11.3357L44.6941 11.2238L43.7777 15H42.0018L43.8191 7.5035L43.8294 7.46993L43.8346 7.43636L44.2799 5.61818H46.0143L45.7192 6.66993L45.714 6.71469C45.9677 6.32308 46.3094 6.0042 46.7029 5.7972C47.0964 5.57343 47.5313 5.46154 47.9714 5.46154C48.4115 5.43357 48.8567 5.59021 49.2192 5.89231ZM47.0757 6.93287C46.8686 6.92727 46.6615 6.97203 46.4647 7.05594C46.2732 7.13986 46.0971 7.26853 45.947 7.42517C45.5949 7.81678 45.3516 8.31469 45.2429 8.84615C45.0875 9.46713 45.0979 9.93706 45.2532 10.2615C45.4085 10.586 45.7037 10.7538 46.1437 10.7538C46.5631 10.765 46.967 10.5916 47.2724 10.2727C47.6141 9.88671 47.8523 9.40559 47.961 8.87972C48.1112 8.26993 48.1008 7.78322 47.9455 7.44196C47.7902 7.1007 47.5002 6.93287 47.0757 6.93287ZM55.049 5.74685C55.2871 5.90909 55.4735 6.14965 55.5771 6.43497L55.6133 6.54126L55.8411 5.61259H57.5807L55.9861 12.158H54.2413L54.4743 11.1902C54.2102 11.5315 53.8788 11.8 53.5061 11.9846C53.1437 12.1636 52.7553 12.2587 52.3619 12.2587C51.9062 12.2811 51.4506 12.1413 51.0779 11.8448C50.7361 11.5538 50.5083 11.1287 50.4358 10.6643C50.3427 10.0713 50.3737 9.46713 50.5342 8.89091C50.6895 8.24755 50.9484 7.63776 51.3057 7.0951C51.6318 6.5972 52.0512 6.17762 52.5379 5.87552C52.9832 5.5958 53.4905 5.44476 54.0031 5.44476C54.3759 5.43357 54.7383 5.53427 55.049 5.74685ZM54.1481 6.94965C53.9358 6.94965 53.7235 6.99441 53.532 7.08392C53.3352 7.17343 53.1592 7.3021 53.009 7.46434C52.6622 7.86154 52.4136 8.35385 52.3049 8.89091C52.1599 9.4951 52.1599 9.95385 52.3256 10.2839C52.4861 10.614 52.7864 10.7706 53.2317 10.7706C53.4388 10.7762 53.6459 10.7315 53.8426 10.6476C54.0394 10.5636 54.2102 10.435 54.3604 10.2783C54.6658 9.92587 54.8885 9.50629 55.0127 9.03636L55.0541 8.86294C55.2094 8.24196 55.2043 7.76643 55.0386 7.44755C54.8781 7.11748 54.583 6.94965 54.1481 6.94965ZM43.3842 5.54545L43.4981 5.5958L43.0528 7.38042C42.7991 7.23496 42.5195 7.16224 42.24 7.16224C41.8154 7.14545 41.4012 7.2965 41.0647 7.58182C40.7747 7.85035 40.5625 8.20839 40.4537 8.6L40.4175 8.75105L39.5891 12.1692H37.8184L39.4234 5.62378H41.1682L40.9404 6.58601C41.1579 6.26154 41.4375 5.9986 41.7533 5.8028C42.1053 5.58462 42.4988 5.47273 42.9027 5.47273C43.0632 5.46154 43.2288 5.48392 43.3842 5.54545ZM36.8451 5.85874C37.2385 6.12727 37.5233 6.55245 37.632 7.04476C37.7615 7.63776 37.7408 8.26434 37.5751 8.84615C37.4198 9.50629 37.1453 10.1217 36.757 10.6476C36.3894 11.1566 35.9235 11.5594 35.3902 11.8336C34.8466 12.1077 34.2563 12.2476 33.6558 12.242C33.0241 12.242 32.5064 12.1077 32.1025 11.8336C31.7039 11.565 31.4191 11.1399 31.3052 10.6476C31.1809 10.0545 31.2016 9.42797 31.3621 8.84615C31.5175 8.19161 31.7919 7.57622 32.1802 7.04476C32.5478 6.54126 33.0189 6.13287 33.5574 5.85874C34.1062 5.58462 34.7068 5.43916 35.3125 5.45035C35.8458 5.42238 36.3791 5.56783 36.8451 5.85874ZM34.9501 6.92727C34.5307 6.92168 34.1269 7.0951 33.8214 7.40839C33.5056 7.73287 33.2674 8.20839 33.1173 8.84615C32.8066 10.1273 33.1069 10.765 34.0182 10.765C34.4324 10.7762 34.831 10.6028 35.1313 10.2895C35.442 9.97063 35.6698 9.48951 35.8251 8.84615C35.9804 8.21399 35.9856 7.73846 35.8303 7.40839C35.6801 7.07832 35.385 6.92727 34.9501 6.92727ZM31.3518 5.61818L31.0411 6.91608L27.1322 10.6476H30.2697L29.8969 12.1748H24.7039L25.0301 10.8266L28.877 7.15105H25.9517L26.3245 5.62378H31.3518V5.61818ZM22.5864 5.74685C22.8245 5.90909 23.0109 6.14965 23.1145 6.43497L23.1507 6.54126L23.3785 5.61259H25.1233L23.5338 12.158H21.789L22.022 11.1902C21.758 11.5259 21.4318 11.7944 21.0642 11.979C20.6966 12.1636 20.2979 12.2587 19.8889 12.2587C19.4333 12.2811 18.988 12.1357 18.6204 11.8448C18.2787 11.5538 18.0509 11.1287 17.9784 10.6643C17.8853 10.0713 17.9163 9.46713 18.0768 8.89091C18.227 8.24755 18.491 7.63776 18.8483 7.0951C19.1744 6.5972 19.5938 6.17762 20.0753 5.87552C20.5206 5.5958 21.028 5.45035 21.5405 5.45035C21.9133 5.43916 22.2757 5.53986 22.5864 5.74685ZM21.6907 6.94965C21.4784 6.94965 21.2713 6.99441 21.0746 7.08392C20.8778 7.17343 20.7018 7.3021 20.5516 7.46434C20.1996 7.86154 19.9562 8.35385 19.8475 8.89091C19.7025 9.4951 19.7077 9.95385 19.8682 10.2839C20.0287 10.614 20.329 10.7706 20.7743 10.7706C20.9814 10.7762 21.1885 10.7315 21.3852 10.6476C21.5768 10.5636 21.758 10.435 21.9029 10.2783C22.2084 9.93147 22.4362 9.50629 22.5553 9.03636L22.5967 8.86294C22.7469 8.24196 22.7313 7.77762 22.5812 7.44755C22.4207 7.11748 22.1204 6.94965 21.6907 6.94965ZM15.281 4.52727H13.619L13.034 6.92168H14.6959C15.2189 6.92168 15.6331 6.82657 15.9126 6.63077C16.2078 6.42378 16.42 6.0993 16.4977 5.71888C16.6012 5.31608 16.5546 5.00839 16.3579 4.81259C16.1612 4.62797 15.8039 4.52727 15.281 4.52727Z" fill="#072654"/>
<path d="M10.6316 0L7.37276 12.1391H5.13668L7.33809 3.91821L3.96375 6.09499L4.56466 3.92951L10.6316 0Z" fill="#3395FF"/>
</svg>
