<svg width="67" height="16" viewBox="0 0 67 16" fill="none" xmlns="http://www.w3.org/2000/svg">
<g clip-path="url(#clip0_684_2270)">
<path d="M-0.00170898 6.98564C-0.00170898 4.1228 -0.00170898 2.69138 0.891054 1.81036C1.78382 0.929332 3.21511 0.948275 6.0777 0.986162L59.1674 1.68882C62.7655 1.73644 64.5646 1.76026 65.4495 2.94783C66.3345 4.13541 65.8429 5.86618 64.8596 9.32771L64.6943 9.90991C64.1063 11.98 63.8123 13.0151 63.0232 13.6199C62.2341 14.2248 61.1582 14.2398 59.0064 14.2699L6.08211 15.0093C3.21763 15.0493 1.78539 15.0693 0.891839 14.1881C-0.00170892 13.307 -0.00170898 11.8746 -0.00170898 9.00989V6.98564Z" fill="#295CAB"/>
<path d="M8.72953 5.83574V6.38165C8.72953 6.49211 8.63998 6.58165 8.52953 6.58165H5.77651C5.66605 6.58165 5.57651 6.67119 5.57651 6.78165V7.32755C5.57651 7.43801 5.66605 7.52755 5.77651 7.52755H8.52953C8.63998 7.52755 8.72953 7.6171 8.72953 7.72755V10.1653C8.72953 10.2757 8.63998 10.3653 8.52953 10.3653H4.2C4.08954 10.3653 4 10.2757 4 10.1653V9.61937C4 9.50891 4.08954 9.41937 4.19999 9.41937H6.95302C7.06347 9.41937 7.15302 9.32982 7.15302 9.21937V8.67346C7.15302 8.563 7.06347 8.47346 6.95302 8.47346H4.2C4.08954 8.47346 4 8.38392 4 8.27346V5.83574C4 5.72529 4.08954 5.63574 4.19999 5.63574H8.52953C8.63998 5.63574 8.72953 5.72529 8.72953 5.83574Z" fill="white"/>
<path d="M14.2476 5.83574V6.38165C14.2476 6.49211 14.1581 6.58165 14.0476 6.58165H11.2946C11.1841 6.58165 11.0946 6.67119 11.0946 6.78165V7.32755C11.0946 7.43801 11.1841 7.52755 11.2946 7.52755H14.0476C14.1581 7.52755 14.2476 7.6171 14.2476 7.72755V10.1653C14.2476 10.2757 14.1581 10.3653 14.0476 10.3653H9.71807C9.60761 10.3653 9.51807 10.2757 9.51807 10.1653V9.61937C9.51807 9.50891 9.60761 9.41937 9.71807 9.41937H12.4711C12.5816 9.41937 12.6711 9.32982 12.6711 9.21937V8.67346C12.6711 8.563 12.5816 8.47346 12.4711 8.47346H9.71807C9.60761 8.47346 9.51807 8.38392 9.51807 8.27346V5.83574C9.51807 5.72529 9.60761 5.63574 9.71807 5.63574H14.0476C14.1581 5.63574 14.2476 5.72529 14.2476 5.83574Z" fill="white"/>
<path d="M16.1431 5.63574H15.2355C15.1251 5.63574 15.0355 5.72528 15.0355 5.83574V10.1653C15.0355 10.2757 15.1251 10.3653 15.2355 10.3653H18.7768C18.8873 10.3653 18.9768 10.2757 18.9768 10.1653V8.62361C18.9768 8.51315 18.8873 8.42361 18.7768 8.42361H17.823C17.7125 8.42361 17.623 8.51315 17.623 8.62361V9.14816C17.623 9.25862 17.5334 9.34816 17.423 9.34816H16.5431C16.4326 9.34816 16.3431 9.25862 16.3431 9.14816V5.83574C16.3431 5.72529 16.2535 5.63574 16.1431 5.63574Z" fill="white"/>
<path d="M23.2047 6.69566V7.15557C23.2047 7.26603 23.2943 7.35557 23.4047 7.35557H24.2946C24.405 7.35557 24.4946 7.26603 24.4946 7.15557V5.83574C24.4946 5.72529 24.405 5.63574 24.2946 5.63574H19.9651C19.8546 5.63574 19.7651 5.72528 19.7651 5.83574V10.1653C19.7651 10.2757 19.8546 10.3653 19.9651 10.3653H24.2946C24.405 10.3653 24.4946 10.2757 24.4946 10.1653V8.84544C24.4946 8.73499 24.405 8.64544 24.2946 8.64544H23.4047C23.2943 8.64544 23.2047 8.73499 23.2047 8.84544V9.30536C23.2047 9.41582 23.1152 9.50536 23.0047 9.50536H21.435C21.3246 9.50536 21.235 9.41582 21.235 9.30536V6.69566C21.235 6.5852 21.3246 6.49566 21.435 6.49566H23.0047C23.1152 6.49566 23.2047 6.5852 23.2047 6.69566Z" fill="white"/>
<path fill-rule="evenodd" clip-rule="evenodd" d="M25.483 5.63574C25.3725 5.63574 25.283 5.72528 25.283 5.83574V10.1653C25.283 10.2757 25.3725 10.3653 25.483 10.3653H29.8125C29.923 10.3653 30.0125 10.2757 30.0125 10.1653V5.83574C30.0125 5.72529 29.923 5.63574 29.8125 5.63574H25.483ZM28.8303 7.11729C28.8303 6.9516 28.696 6.81729 28.5303 6.81729H26.7157C26.55 6.81729 26.4157 6.9516 26.4157 7.11729V8.94363C26.4157 9.10932 26.55 9.24363 26.7157 9.24363H28.5303C28.696 9.24363 28.8303 9.10932 28.8303 8.94363V7.11729Z" fill="white"/>
<path d="M31.001 6.58165H31.0184C31.1288 6.58165 31.2184 6.67119 31.2184 6.78165V10.1653C31.2184 10.2757 31.3079 10.3653 31.4184 10.3653H32.2703C32.3807 10.3653 32.4703 10.2757 32.4703 10.1653V6.78165C32.4703 6.67119 32.5598 6.58165 32.6703 6.58165H33.7818C33.8922 6.58165 33.9818 6.67119 33.9818 6.78165V10.1653C33.9818 10.2757 34.0713 10.3653 34.1818 10.3653H34.8961C35.0066 10.3653 35.0961 10.2757 35.0961 10.1653V6.78165C35.0961 6.67119 35.1857 6.58165 35.2961 6.58165H36.4434C36.5539 6.58165 36.6434 6.67119 36.6434 6.78165V10.1653C36.6434 10.2757 36.7329 10.3653 36.8434 10.3653H37.6953C37.8058 10.3653 37.8953 10.2757 37.8953 10.1653V5.83574C37.8953 5.72529 37.8058 5.63574 37.6953 5.63574H35.0644C35.007 5.63574 34.9524 5.66039 34.9144 5.70342L34.7068 5.93873C34.6272 6.02897 34.4865 6.02897 34.4069 5.93873L34.1992 5.70342C34.1613 5.66039 34.1067 5.63574 34.0493 5.63574H32.1827C32.1111 5.63574 32.053 5.69384 32.053 5.7655C32.053 5.88506 31.905 5.941 31.8259 5.85136L31.6954 5.70342C31.6574 5.66039 31.6028 5.63574 31.5454 5.63574H31.001C30.8906 5.63574 30.801 5.72529 30.801 5.83574V6.38165C30.801 6.49211 30.8906 6.58165 31.001 6.58165Z" fill="white"/>
<path d="M38.8834 6.58165H38.9007C39.0111 6.58165 39.1007 6.67119 39.1007 6.78165V10.1653C39.1007 10.2757 39.1902 10.3653 39.3007 10.3653H40.1525C40.263 10.3653 40.3526 10.2757 40.3526 10.1653V6.78165C40.3526 6.67119 40.4422 6.58165 40.5526 6.58165H41.6641C41.7746 6.58165 41.8641 6.67119 41.8641 6.78165V10.1653C41.8641 10.2757 41.9535 10.3653 42.064 10.3653H42.7785C42.8889 10.3653 42.9785 10.2757 42.9785 10.1653V6.78165C42.9785 6.67119 43.068 6.58165 43.1785 6.58165H44.3256C44.4361 6.58165 44.5257 6.67119 44.5257 6.78165V10.1653C44.5257 10.2757 44.6153 10.3653 44.7257 10.3653H45.5777C45.6881 10.3653 45.7776 10.2757 45.7776 10.1653V5.83574C45.7776 5.72529 45.6881 5.63574 45.5777 5.63574H42.9467C42.8894 5.63574 42.8346 5.66039 42.7967 5.70342L42.5891 5.93873C42.5095 6.02897 42.3688 6.02897 42.2892 5.93873L42.0816 5.70342C42.0436 5.66039 41.9889 5.63574 41.9315 5.63574H40.0651C39.9934 5.63574 39.9352 5.69384 39.9352 5.7655C39.9352 5.88506 39.7872 5.941 39.7081 5.85136L39.5777 5.70342C39.5397 5.66039 39.4851 5.63574 39.4277 5.63574H38.8834C38.7729 5.63574 38.6833 5.72529 38.6833 5.83574V6.38165C38.6833 6.49211 38.7729 6.58165 38.8834 6.58165Z" fill="white"/>
<path fill-rule="evenodd" clip-rule="evenodd" d="M49.8765 8.91223V9.21937C49.8765 9.32982 49.7869 9.41937 49.6765 9.41937H48.1847C48.0742 9.41937 47.9847 9.32982 47.9847 9.21937V8.20051C47.9847 8.09005 48.0742 8.00051 48.1847 8.00051H51.0953C51.2058 8.00051 51.2953 7.91096 51.2953 7.80051V5.83574C51.2953 5.72528 51.2058 5.63574 51.0953 5.63574H46.7658C46.6554 5.63574 46.5658 5.72529 46.5658 5.83574V10.1653C46.5658 10.2757 46.6554 10.3653 46.7658 10.3653H51.0953C51.2058 10.3653 51.2953 10.2757 51.2953 10.1653V8.91223C51.2953 8.80177 51.2058 8.71223 51.0953 8.71223H50.0765C49.966 8.71223 49.8765 8.80177 49.8765 8.91223ZM49.7191 6.72387C49.7191 6.55819 49.5848 6.42387 49.4191 6.42387H48.4426C48.2769 6.42387 48.1426 6.55819 48.1426 6.72387V6.91213C48.1426 7.07782 48.2769 7.21213 48.4426 7.21213H49.4191C49.5848 7.21213 49.7191 7.07782 49.7191 6.91213V6.72387Z" fill="white"/>
<path d="M52.9525 5.63574H52.2839C52.1734 5.63574 52.0839 5.72529 52.0839 5.83574V6.29566C52.0839 6.40611 52.1734 6.49566 52.2839 6.49566H52.6721C52.7826 6.49566 52.8721 6.5852 52.8721 6.69566V10.1653C52.8721 10.2757 52.9617 10.3653 53.0721 10.3653H53.9021C54.0125 10.3653 54.1021 10.2757 54.1021 10.1653V6.69566C54.1021 6.5852 54.1916 6.49566 54.3021 6.49566H54.8004C54.9109 6.49566 55.0004 6.5852 55.0004 6.69566V7.15557C55.0004 7.26603 55.09 7.35557 55.2004 7.35557H56.0101C56.1206 7.35557 56.2101 7.26603 56.2101 7.15557V5.83574C56.2101 5.72529 56.1206 5.63574 56.0101 5.63574H54.053C54.0033 5.63574 53.9553 5.65429 53.9185 5.68775L53.6373 5.9434C53.561 6.01274 53.4445 6.01274 53.3682 5.9434L53.087 5.68775C53.0502 5.65429 53.0022 5.63574 52.9525 5.63574Z" fill="white"/>
<path d="M60.5544 5.63574H57.0131C56.9027 5.63574 56.8131 5.72529 56.8131 5.83574V6.224C56.8131 6.33445 56.9027 6.424 57.0131 6.424H59.1779L58.3896 7.21225L57.9955 6.81812V8.39464H59.572L59.1779 8.00051L60.6958 6.48258C60.7333 6.44507 60.7544 6.3942 60.7544 6.34115V5.83574C60.7544 5.72529 60.6649 5.63574 60.5544 5.63574Z" fill="white"/>
<path d="M57.6017 8.78826V8L56.4151 9.48323C56.2579 9.67966 56.3978 9.97064 56.6493 9.97064H60.5547C60.6651 9.97064 60.7547 9.88109 60.7547 9.77064V9.38238C60.7547 9.27193 60.6651 9.18238 60.5547 9.18238H58.3899V8.78826H57.6017Z" fill="white"/>
</g>
<defs>
<clipPath id="clip0_684_2270">
<rect width="67" height="16" fill="white"/>
</clipPath>
</defs>
</svg>
