<svg width="44" height="19" viewBox="0 0 44 19" fill="none" xmlns="http://www.w3.org/2000/svg">
<path d="M3.11333 7.764C3.11333 7.28758 3.50424 7.10434 4.15168 7.10434C5.08009 7.10434 6.25282 7.38531 7.18123 7.88616V5.01542C6.16731 4.6123 5.16561 4.45349 4.15168 4.45349C1.67185 4.45349 0.0227051 5.74838 0.0227051 7.9106C0.0227051 11.2822 4.66475 10.7447 4.66475 12.1984C4.66475 12.7603 4.17612 12.9436 3.49202 12.9436C2.4781 12.9436 1.18322 12.5282 0.15708 11.9663V14.8737C1.29316 15.3623 2.44146 15.57 3.49202 15.57C6.03294 15.57 7.77981 14.3117 7.77981 12.1251C7.7676 8.48474 3.11333 9.13219 3.11333 7.764ZM11.3713 2.01031L8.39061 2.64554L8.37839 12.4305C8.37839 14.2384 9.73436 15.57 11.5423 15.57C12.544 15.57 13.277 15.3867 13.6801 15.1669V12.687C13.2892 12.8458 11.3591 13.4078 11.3591 11.5998V7.26315H13.6801V4.66116H11.3591L11.3713 2.01031ZM17.4792 5.56514L17.2838 4.66116H14.6452V15.3501H17.6991V8.10605C18.4199 7.16542 19.6415 7.33645 20.0202 7.47082V4.66116C19.6292 4.51457 18.2 4.24582 17.4792 5.56514ZM20.7653 4.66116H23.8315V15.3501H20.7653V4.66116ZM20.7653 3.73275L23.8315 3.07309V0.593262L20.7653 1.24071V3.73275ZM30.2082 4.45349C29.0111 4.45349 28.2415 5.01542 27.8139 5.40633L27.6551 4.64895H24.9676V18.8927L28.0216 18.2453L28.0338 14.7882C28.4736 15.1058 29.121 15.5578 30.196 15.5578C32.3827 15.5578 34.3739 13.7987 34.3739 9.92622C34.3616 6.38361 32.346 4.45349 30.2082 4.45349ZM29.4753 12.8703C28.7545 12.8703 28.327 12.6137 28.0338 12.2961L28.0216 7.764C28.3392 7.40974 28.779 7.16542 29.4753 7.16542C30.5869 7.16542 31.3565 8.41145 31.3565 10.0117C31.3565 11.6487 30.5991 12.8703 29.4753 12.8703ZM44 10.0484C44 6.92111 42.4852 4.45349 39.5901 4.45349C36.6827 4.45349 34.9236 6.92111 34.9236 10.0239C34.9236 13.7009 37.0003 15.5578 39.981 15.5578C41.4347 15.5578 42.5341 15.2279 43.3648 14.7637V12.3205C42.5341 12.7359 41.5812 12.9924 40.3719 12.9924C39.1869 12.9924 38.1364 12.5771 38.002 11.1356H43.9756C43.9756 10.9768 44 10.3416 44 10.0484ZM37.9653 8.88787C37.9653 7.50747 38.8082 6.93332 39.5778 6.93332C40.323 6.93332 41.117 7.50747 41.117 8.88787H37.9653Z" fill="#6772E5"/>
</svg>
