<svg width="20" height="20" viewBox="0 0 20 20" fill="none" xmlns="http://www.w3.org/2000/svg">
<path d="M17.6398 5.83325C18.5645 7.9534 18.5645 10.3798 17.6398 12.4999M2.36024 12.4999C1.4355 10.3798 1.4355 7.9534 2.36024 5.83325" stroke="#007AFF" stroke-width="1.25" stroke-linecap="round" stroke-linejoin="round"/>
<path d="M12.5 9.16675C12.5 10.5475 11.3807 11.6667 10 11.6667C8.61925 11.6667 7.5 10.5475 7.5 9.16675C7.5 7.78604 8.61925 6.66675 10 6.66675C11.3807 6.66675 12.5 7.78604 12.5 9.16675Z" stroke="#007AFF" stroke-width="1.25"/>
<path d="M10 2.91675C13.3823 2.91675 16.25 5.77344 16.25 9.23916C16.25 12.7601 13.3357 15.2309 10.6437 16.9111C10.4476 17.024 10.2257 17.0834 10 17.0834C9.77425 17.0834 9.55242 17.024 9.35625 16.9111C6.66937 15.2145 3.75 12.7722 3.75 9.23916C3.75 5.77344 6.61767 2.91675 10 2.91675Z" stroke="#007AFF" stroke-width="1.25"/>
</svg>
