<svg width="20" height="20" viewBox="0 0 20 20" fill="none" xmlns="http://www.w3.org/2000/svg">
<path d="M2.05369 7.78581C1.84657 7.78581 1.65757 7.61792 1.66709 7.39847C1.72285 6.11341 1.87908 5.27683 2.31681 4.61505C2.56864 4.23432 2.88145 3.90317 3.2411 3.63658C4.2132 2.91602 5.58457 2.91602 8.32729 2.91602H11.6729C14.4156 2.91602 15.7869 2.91602 16.7591 3.63658C17.1187 3.90317 17.4315 4.23432 17.6834 4.61505C18.121 5.27676 18.2773 6.11322 18.333 7.39804C18.3426 7.61775 18.1534 7.78581 17.946 7.78581C16.7912 7.78581 15.855 8.77685 15.855 9.99935C15.855 11.2218 16.7912 12.2128 17.946 12.2128C18.1534 12.2128 18.3426 12.3809 18.333 12.6007C18.2773 13.8855 18.121 14.7219 17.6834 15.3837C17.4315 15.7644 17.1187 16.0955 16.7591 16.3621C15.7869 17.0827 14.4156 17.0827 11.6729 17.0827H8.32729C5.58457 17.0827 4.2132 17.0827 3.2411 16.3621C2.88145 16.0955 2.56864 15.7644 2.31681 15.3837C1.87908 14.7219 1.72285 13.8853 1.66709 12.6003C1.65757 12.3808 1.84657 12.2128 2.05369 12.2128C3.20851 12.2128 4.14468 11.2218 4.14468 9.99935C4.14468 8.77685 3.20851 7.78581 2.05369 7.78581Z" stroke="#FC7F19" stroke-width="1.25" stroke-linejoin="round"/>
<path d="M7.91675 12.0827L12.0834 7.91602" stroke="#FC7F19" stroke-width="1.25" stroke-linecap="round" stroke-linejoin="round"/>
<path d="M7.91675 7.91602H7.92611M12.074 12.0827H12.0834" stroke="#FC7F19" stroke-width="1.25" stroke-linecap="round" stroke-linejoin="round"/>
</svg>
