<svg width="20" height="20" viewBox="0 0 20 20" fill="none" xmlns="http://www.w3.org/2000/svg">
<path d="M3.3335 15.538V6.71172C3.3335 4.33338 3.3335 3.14421 4.06573 2.40536C4.79796 1.6665 5.97647 1.6665 8.3335 1.6665H11.6668C14.0238 1.6665 15.2023 1.6665 15.9346 2.40536C16.6668 3.14421 16.6668 4.33338 16.6668 6.71172V15.538C16.6668 16.7978 16.6668 17.4276 16.2818 17.6755C15.6527 18.0808 14.6802 17.231 14.1911 16.9226C13.7869 16.6677 13.5849 16.5403 13.3606 16.5329C13.1182 16.5249 12.9126 16.6472 12.4759 16.9226L10.8835 17.9268C10.4539 18.1977 10.2392 18.3332 10.0002 18.3332C9.76116 18.3332 9.54641 18.1977 9.11683 17.9268L7.52444 16.9226C7.12029 16.6677 6.91821 16.5403 6.69394 16.5329C6.4516 16.5249 6.24594 16.6472 5.80922 16.9226C5.32012 17.231 4.34755 18.0808 3.71845 17.6755C3.3335 17.4276 3.3335 16.7978 3.3335 15.538Z" stroke="#FF3B30" stroke-width="1.25" stroke-linecap="round" stroke-linejoin="round"/>
<path d="M13.3332 5H6.6665" stroke="#FF3B30" stroke-width="1.25" stroke-linecap="round" stroke-linejoin="round"/>
<path d="M8.33317 8.3335H6.6665" stroke="#FF3B30" stroke-width="1.25" stroke-linecap="round" stroke-linejoin="round"/>
<path d="M12.0835 8.22917C11.3932 8.22917 10.8335 8.71883 10.8335 9.32292C10.8335 9.927 11.3932 10.4167 12.0835 10.4167C12.7738 10.4167 13.3335 10.9063 13.3335 11.5104C13.3335 12.1145 12.7738 12.6042 12.0835 12.6042M12.0835 8.22917C12.6277 8.22917 13.0907 8.5335 13.2623 8.95833M12.0835 8.22917V7.5M12.0835 12.6042C11.5392 12.6042 11.0762 12.2998 10.9047 11.875M12.0835 12.6042V13.3333" stroke="#FF3B30" stroke-width="1.25" stroke-linecap="round"/>
</svg>
