<svg width="20" height="20" viewBox="0 0 20 20" fill="none" xmlns="http://www.w3.org/2000/svg">
<path d="M1.66666 3.75H7.29779C7.96083 3.75 8.59674 4.01339 9.06557 4.48223L11.6667 7.08333" stroke="#AF52DE" stroke-width="1.25" stroke-linecap="round" stroke-linejoin="round"/>
<path d="M4.16666 11.25H1.66666" stroke="#AF52DE" stroke-width="1.25" stroke-linecap="round" stroke-linejoin="round"/>
<path d="M7.08332 6.25L8.74999 7.91667C9.21024 8.37692 9.21024 9.12308 8.74999 9.58333C8.28976 10.0436 7.54356 10.0436 7.08332 9.58333L5.83332 8.33333C5.11608 9.05058 3.98058 9.13125 3.16911 8.52267L2.91666 8.33333" stroke="#AF52DE" stroke-width="1.25" stroke-linecap="round" stroke-linejoin="round"/>
<path d="M4.16666 9.16659V12.9166C4.16666 14.4879 4.16666 15.2736 4.65481 15.7618C5.14296 16.2499 5.92864 16.2499 7.49999 16.2499H15C16.5713 16.2499 17.357 16.2499 17.8452 15.7618C18.3333 15.2736 18.3333 14.4879 18.3333 12.9166V10.4166C18.3333 8.84525 18.3333 8.05956 17.8452 7.57141C17.357 7.08325 16.5713 7.08325 15 7.08325H7.91666" stroke="#AF52DE" stroke-width="1.25" stroke-linecap="round" stroke-linejoin="round"/>
<path d="M12.7083 11.6666C12.7083 12.472 12.0554 13.1249 11.25 13.1249C10.4446 13.1249 9.79166 12.472 9.79166 11.6666C9.79166 10.8612 10.4446 10.2083 11.25 10.2083C12.0554 10.2083 12.7083 10.8612 12.7083 11.6666Z" stroke="#AF52DE" stroke-width="1.25" stroke-linecap="round" stroke-linejoin="round"/>
</svg>
