<svg width="20" height="20" viewBox="0 0 20 20" fill="none" xmlns="http://www.w3.org/2000/svg">
<g clip-path="url(#clip0_3139_8190)">
<path d="M10.0001 15V12.5" stroke="#2F5A76" stroke-width="1.5" stroke-linecap="round"/>
<path d="M1.95982 11.0106C1.66563 9.09618 1.51854 8.13904 1.88047 7.2905C2.24238 6.44195 3.04535 5.86137 4.65128 4.70023L5.85115 3.83268C7.8489 2.38824 8.84776 1.66602 10.0003 1.66602C11.1528 1.66602 12.1518 2.38824 14.1495 3.83268L15.3493 4.70023C16.9553 5.86137 17.7583 6.44195 18.1202 7.2905C18.4821 8.13904 18.335 9.09618 18.0408 11.0106L17.79 12.643C17.3729 15.3568 17.1644 16.7137 16.1912 17.5232C15.2179 18.3327 13.795 18.3327 10.9493 18.3327H9.05134C6.20561 18.3327 4.78275 18.3327 3.80949 17.5232C2.83623 16.7137 2.62772 15.3568 2.21068 12.643L1.95982 11.0106Z" stroke="#2F5A76" stroke-width="1.5" stroke-linejoin="round"/>
</g>
<defs>
<clipPath id="clip0_3139_8190">
<rect width="20" height="20" fill="white"/>
</clipPath>
</defs>
</svg>
