<svg width="20" height="20" viewBox="0 0 20 20" fill="none" xmlns="http://www.w3.org/2000/svg">
<path d="M17.7645 5.9512L17.3532 5.23737C17.0421 4.69751 16.8866 4.42758 16.6219 4.31994C16.3572 4.21231 16.0579 4.29724 15.4593 4.46711L14.4425 4.75353C14.0603 4.84166 13.6593 4.79166 13.3104 4.61237L13.0297 4.45039C12.7304 4.25873 12.5003 3.97615 12.3728 3.64399L12.0946 2.81284C11.9116 2.26283 11.8201 1.98782 11.6023 1.83052C11.3845 1.67322 11.0952 1.67322 10.5165 1.67322H9.5875C9.00892 1.67322 8.71958 1.67322 8.50175 1.83052C8.28396 1.98782 8.19247 2.26283 8.00949 2.81284L7.73119 3.64399C7.60379 3.97615 7.37363 4.25873 7.07439 4.45039L6.79366 4.61237C6.4447 4.79166 6.04374 4.84166 5.66157 4.75353L4.64471 4.46711C4.04609 4.29724 3.74679 4.21231 3.48214 4.31994C3.21749 4.42758 3.06196 4.69751 2.75088 5.23737L2.33956 5.9512C2.04797 6.45724 1.90217 6.71027 1.93047 6.97962C1.95876 7.24897 2.15394 7.46603 2.5443 7.90014L3.4035 8.86071C3.6135 9.12654 3.76259 9.58988 3.76259 10.0065C3.76259 10.4232 3.61355 10.8864 3.40353 11.1523L2.5443 12.1129C2.15394 12.547 1.95877 12.764 1.93047 13.0335C1.90217 13.3028 2.04797 13.5558 2.33956 14.0618L2.75087 14.7756C3.06194 15.3155 3.21749 15.5855 3.48214 15.693C3.74679 15.8007 4.0461 15.7158 4.64473 15.5459L5.66153 15.2595C6.04378 15.1713 6.44481 15.2214 6.79381 15.4007L7.0745 15.5627C7.37368 15.7544 7.60378 16.0369 7.73117 16.369L8.00949 17.2003C8.19247 17.7503 8.28396 18.0253 8.50175 18.1826C8.71958 18.3399 9.00892 18.3399 9.5875 18.3399H10.5165C11.0952 18.3399 11.3845 18.3399 11.6023 18.1826C11.8201 18.0253 11.9116 17.7503 12.0946 17.2003L12.3729 16.369C12.5003 16.0369 12.7303 15.7544 13.0296 15.5627L13.3103 15.4007C13.6593 15.2214 14.0603 15.1713 14.4425 15.2595L15.4593 15.5459C16.0579 15.7158 16.3572 15.8007 16.6219 15.693C16.8866 15.5855 17.0421 15.3155 17.3532 14.7756L17.7645 14.0618C18.0561 13.5558 18.2018 13.3028 18.1736 13.0335C18.1452 12.764 17.9501 12.547 17.5598 12.1129L16.7005 11.1523C16.4905 10.8864 16.3414 10.4232 16.3414 10.0065C16.3414 9.58988 16.4906 9.12654 16.7005 8.86071L17.5598 7.90014C17.9501 7.46603 18.1452 7.24897 18.1736 6.97962C18.2018 6.71027 18.0561 6.45724 17.7645 5.9512Z" stroke="#5B5B5B" stroke-width="1.25" stroke-linecap="round"/>
<path d="M7.08325 13.3333C7.66544 12.3269 8.75361 11.6497 9.99994 11.6497C11.2462 11.6497 12.3344 12.3269 12.9166 13.3333M11.6666 7.91667C11.6666 8.83715 10.9204 9.58332 9.99994 9.58332C9.07944 9.58332 8.33328 8.83715 8.33328 7.91667C8.33328 6.99619 9.07944 6.25 9.99994 6.25C10.9204 6.25 11.6666 6.99619 11.6666 7.91667Z" stroke="#5B5B5B" stroke-width="1.25" stroke-linecap="round"/>
</svg>
