<svg width="20" height="20" viewBox="0 0 20 20" fill="none" xmlns="http://www.w3.org/2000/svg">
<path d="M17.4522 14.0294C16.9053 10.7388 15.2027 8.28836 13.7225 6.84909C13.2917 6.43027 13.0764 6.22086 12.6007 6.02706C12.1249 5.83325 11.716 5.83325 10.8982 5.83325H9.10183C8.28401 5.83325 7.87508 5.83325 7.39935 6.02706C6.92361 6.22086 6.70826 6.43027 6.27753 6.84909C4.79735 8.28836 3.09467 10.7388 2.54772 14.0294C2.14077 16.4778 4.39939 18.3333 6.9236 18.3333H13.0764C15.6006 18.3333 17.8592 16.4778 17.4522 14.0294Z" stroke="#00C7BE" stroke-width="1.25" stroke-linecap="round" stroke-linejoin="round"/>
<path d="M6.04719 3.70247C5.87527 3.45223 5.62608 3.11257 6.14084 3.03512C6.66994 2.95551 7.21935 3.3177 7.75714 3.31026C8.24365 3.30352 8.49151 3.08774 8.75743 2.77965C9.03743 2.45522 9.47101 1.66675 10 1.66675C10.529 1.66675 10.9626 2.45522 11.2426 2.77965C11.5085 3.08774 11.7563 3.30352 12.2428 3.31026C12.7807 3.3177 13.3301 2.95551 13.8592 3.03512C14.3739 3.11257 14.1248 3.45223 13.9528 3.70247L13.1754 4.83395C12.8429 5.31796 12.6767 5.55997 12.3287 5.6967C11.9808 5.83341 11.5311 5.83341 10.6318 5.83341H9.36818C8.46893 5.83341 8.01926 5.83341 7.67131 5.6967C7.32336 5.55997 7.15709 5.31796 6.82455 4.83395L6.04719 3.70247Z" stroke="#00C7BE" stroke-width="1.25" stroke-linejoin="round"/>
<path d="M11.3556 10.7656C11.1754 10.1005 10.2584 9.50031 9.15766 9.94931C8.0569 10.3982 7.88205 11.8428 9.54707 11.9963C10.2996 12.0656 10.7902 11.9158 11.2394 12.3397C11.6887 12.7636 11.7721 13.9424 10.6237 14.2601C9.47541 14.5777 8.33832 14.0814 8.21451 13.3765M9.86807 9.16064V9.79431M9.86807 14.3578V14.994" stroke="#00C7BE" stroke-width="1.25" stroke-linecap="round" stroke-linejoin="round"/>
</svg>
