<svg width="20" height="20" viewBox="0 0 20 20" fill="none" xmlns="http://www.w3.org/2000/svg">
<path d="M2.9165 10.4165V16.2498C2.9165 16.6381 2.9165 16.8323 2.97994 16.9854C3.06451 17.1896 3.22675 17.3518 3.43094 17.4364C3.58408 17.4998 3.77822 17.4998 4.1665 17.4998C4.55479 17.4998 4.74893 17.4998 4.90207 17.4364C5.10626 17.3518 5.2685 17.1896 5.35307 16.9854C5.4165 16.8323 5.4165 16.6381 5.4165 16.2498V10.4165C5.4165 10.0283 5.4165 9.83409 5.35307 9.68092C5.2685 9.47675 5.10626 9.3145 4.90207 9.22992C4.74893 9.1665 4.55479 9.1665 4.1665 9.1665C3.77822 9.1665 3.58408 9.1665 3.43094 9.22992C3.22675 9.3145 3.06451 9.47675 2.97994 9.68092C2.9165 9.83409 2.9165 10.0283 2.9165 10.4165Z" stroke="#5856D6" stroke-width="1.25" stroke-linecap="square" stroke-linejoin="round"/>
<path d="M8.75 12.0835V16.2497C8.75 16.638 8.75 16.8322 8.81342 16.9853C8.898 17.1895 9.06025 17.3517 9.26442 17.4363C9.41758 17.4997 9.61175 17.4997 10 17.4997C10.3882 17.4997 10.5824 17.4997 10.7356 17.4363C10.9397 17.3517 11.102 17.1895 11.1866 16.9853C11.25 16.8322 11.25 16.638 11.25 16.2497V12.0835C11.25 11.6952 11.25 11.5011 11.1866 11.3479C11.102 11.1437 10.9397 10.9815 10.7356 10.8969C10.5824 10.8335 10.3882 10.8335 10 10.8335C9.61175 10.8335 9.41758 10.8335 9.26442 10.8969C9.06025 10.9815 8.898 11.1437 8.81342 11.3479C8.75 11.5011 8.75 11.6952 8.75 12.0835Z" stroke="#5856D6" stroke-width="1.25" stroke-linecap="square" stroke-linejoin="round"/>
<path d="M14.5835 8.75V16.25C14.5835 16.6382 14.5835 16.8324 14.6469 16.9856C14.7315 17.1897 14.8937 17.352 15.0979 17.4366C15.2511 17.5 15.4452 17.5 15.8335 17.5C16.2217 17.5 16.4159 17.5 16.5691 17.4366C16.7732 17.352 16.9355 17.1897 17.0201 16.9856C17.0835 16.8324 17.0835 16.6382 17.0835 16.25V8.75C17.0835 8.36175 17.0835 8.16758 17.0201 8.01443C16.9355 7.81024 16.7732 7.64801 16.5691 7.56343C16.4159 7.5 16.2217 7.5 15.8335 7.5C15.4452 7.5 15.2511 7.5 15.0979 7.56343C14.8937 7.64801 14.7315 7.81024 14.6469 8.01443C14.5835 8.16758 14.5835 8.36175 14.5835 8.75Z" stroke="#5856D6" stroke-width="1.25" stroke-linecap="square" stroke-linejoin="round"/>
<path d="M5.4165 5.4165C5.4165 6.10686 4.85686 6.6665 4.1665 6.6665C3.47615 6.6665 2.9165 6.10686 2.9165 5.4165C2.9165 4.72615 3.47615 4.1665 4.1665 4.1665C4.85686 4.1665 5.4165 4.72615 5.4165 5.4165Z" stroke="#5856D6" stroke-width="1.25"/>
<path d="M17.0835 3.75C17.0835 4.44036 16.5238 5 15.8335 5C15.1432 5 14.5835 4.44036 14.5835 3.75C14.5835 3.05964 15.1432 2.5 15.8335 2.5C16.5238 2.5 17.0835 3.05964 17.0835 3.75Z" stroke="#5856D6" stroke-width="1.25"/>
<path d="M11.25 7.0835C11.25 7.77385 10.6903 8.3335 10 8.3335C9.30967 8.3335 8.75 7.77385 8.75 7.0835C8.75 6.39314 9.30967 5.8335 10 5.8335C10.6903 5.8335 11.25 6.39314 11.25 7.0835Z" stroke="#5856D6" stroke-width="1.25"/>
<path d="M5.36963 5.75999L8.7985 6.73968M11.0862 6.46289L14.7486 4.37012" stroke="#5856D6" stroke-width="1.25"/>
</svg>
