<svg width="20" height="20" viewBox="0 0 20 20" fill="none" xmlns="http://www.w3.org/2000/svg">
<path d="M10.0016 7.5013C9.08113 7.5013 8.33496 8.06094 8.33496 8.75134C8.33496 9.44167 9.08113 10.0013 10.0016 10.0013C10.922 10.0013 11.6683 10.561 11.6683 11.2513C11.6683 11.9417 10.922 12.5013 10.0016 12.5013M10.0016 7.5013C10.7273 7.5013 11.3446 7.84914 11.5734 8.33467M10.0016 7.5013V6.66797M10.0016 12.5013C9.27588 12.5013 8.65854 12.1535 8.42979 11.668M10.0016 12.5013V13.3347" stroke="#2F5A76" stroke-width="1.25" stroke-linecap="round"/>
<path d="M11.2497 2.08398C11.2497 2.08398 10.5696 2.08398 9.99967 2.08398C6.26772 2.08398 4.40175 2.08398 3.24237 3.24336C2.08301 4.40273 2.08301 6.2687 2.08301 10.0007C2.08301 13.7326 2.08301 15.5986 3.24237 16.758C4.40175 17.9174 6.26772 17.9173 9.99967 17.9173C13.7316 17.9173 15.5976 17.9174 16.757 16.758C17.9163 15.5986 17.9163 13.7326 17.9163 10.0007C17.9163 9.43077 17.9163 8.75068 17.9163 8.75068" stroke="#2F5A76" stroke-width="1.25" stroke-linecap="round"/>
<path d="M13.75 6.2487L17.2298 2.76686M17.9167 5.8139L17.8182 3.23766C17.8182 2.63045 17.4556 2.25213 16.7952 2.20441L14.1918 2.08203" stroke="#2F5A76" stroke-width="1.25" stroke-linecap="round" stroke-linejoin="round"/>
</svg>
