<svg width="20" height="20" viewBox="0 0 20 20" fill="none" xmlns="http://www.w3.org/2000/svg">
<path d="M14.9998 5C16.0833 5.10725 16.8125 5.34963 17.3568 5.89742C18.3332 6.87997 18.3332 8.46133 18.3332 11.6241C18.3332 14.7868 18.3332 16.3682 17.3568 17.3507C16.3806 18.3333 14.8092 18.3333 11.6665 18.3333H8.33317C5.19047 18.3333 3.61913 18.3333 2.64281 17.3507C1.6665 16.3682 1.6665 14.7868 1.6665 11.6241C1.6665 8.46133 1.6665 6.87997 2.64281 5.89742C3.18713 5.34963 3.91641 5.10725 4.99984 5" stroke="#34C759" stroke-width="1.25" stroke-linecap="round"/>
<path d="M7.9165 4.58317C8.32611 5.00459 9.41634 6.6665 9.99984 6.6665M9.99984 6.6665C10.5833 6.6665 11.6736 5.00459 12.0832 4.58317M9.99984 6.6665V1.6665" stroke="#34C759" stroke-width="1.25" stroke-linecap="round" stroke-linejoin="round"/>
<path d="M15.423 11.6665H15.4155" stroke="#34C759" stroke-width="1.66667" stroke-linecap="round" stroke-linejoin="round"/>
<path d="M4.59 11.6665H4.58252" stroke="#34C759" stroke-width="1.66667" stroke-linecap="round" stroke-linejoin="round"/>
<path d="M12.0832 11.6668C12.0832 12.8174 11.1504 13.7502 9.99984 13.7502C8.84925 13.7502 7.9165 12.8174 7.9165 11.6668C7.9165 10.5162 8.84925 9.5835 9.99984 9.5835C11.1504 9.5835 12.0832 10.5162 12.0832 11.6668Z" stroke="#34C759" stroke-width="1.25"/>
</svg>
