<svg width="20" height="20" viewBox="0 0 20 20" fill="none" xmlns="http://www.w3.org/2000/svg">
<path d="M12.5 6.6665C12.5 8.04721 11.3807 9.1665 10 9.1665C8.61925 9.1665 7.5 8.04721 7.5 6.6665C7.5 5.2858 8.61925 4.1665 10 4.1665C11.3807 4.1665 12.5 5.2858 12.5 6.6665Z" stroke="#007AFF" stroke-width="1.2" stroke-linecap="round" stroke-linejoin="round"/>
<path d="M13.3335 3.3335C14.7142 3.3335 15.8335 4.45279 15.8335 5.8335C15.8335 6.85274 15.2235 7.72952 14.3487 8.11875" stroke="#007AFF" stroke-width="1.2" stroke-linecap="round" stroke-linejoin="round"/>
<path d="M11.4286 11.6665H8.57143C6.59898 11.6665 5 13.2655 5 15.2379C5 16.0269 5.63959 16.6665 6.42857 16.6665H13.5714C14.3604 16.6665 15 16.0269 15 15.2379C15 13.2655 13.401 11.6665 11.4286 11.6665Z" stroke="#007AFF" stroke-width="1.2" stroke-linecap="round" stroke-linejoin="round"/>
<path d="M14.7617 10.8335C16.7341 10.8335 18.3331 12.4325 18.3331 14.4049C18.3331 15.1939 17.6936 15.8335 16.9046 15.8335" stroke="#007AFF" stroke-width="1.2" stroke-linecap="round" stroke-linejoin="round"/>
<path d="M6.6665 3.3335C5.2858 3.3335 4.1665 4.45279 4.1665 5.8335C4.1665 6.85274 4.77645 7.72952 5.65124 8.11875" stroke="#007AFF" stroke-width="1.2" stroke-linecap="round" stroke-linejoin="round"/>
<path d="M3.09508 15.8335C2.3061 15.8335 1.6665 15.1939 1.6665 14.4049C1.6665 12.4325 3.26549 10.8335 5.23793 10.8335" stroke="#007AFF" stroke-width="1.2" stroke-linecap="round" stroke-linejoin="round"/>
</svg>
