<svg width="20" height="20" viewBox="0 0 20 20" fill="none" xmlns="http://www.w3.org/2000/svg">
<path d="M9.58317 6.6665H16.8298C17.3505 6.6665 17.6108 6.6665 17.8014 6.75054C18.6445 7.12225 18.2676 8.0588 18.1258 8.73184C18.1003 8.85275 18.0173 8.95567 17.9012 9.01084C17.4193 9.2395 17.0817 9.67325 16.9931 10.1777L16.4993 12.9897C16.282 14.2269 16.2078 15.9951 15.1235 16.8667C14.328 17.4998 13.1818 17.4998 10.8894 17.4998H9.11026C6.81786 17.4998 5.67167 17.4998 4.87617 16.8667C3.79194 15.995 3.71766 14.2269 3.50039 12.9897L3.00656 10.1777C2.91798 9.67325 2.58045 9.2395 2.09851 9.01084C1.98231 8.95567 1.89944 8.85275 1.87396 8.73184C1.73212 8.0588 1.35517 7.12225 2.19827 6.75054C2.38887 6.6665 2.64919 6.6665 3.16981 6.6665H6.24984" stroke="#00C7BE" stroke-width="1.25" stroke-linecap="round"/>
<path d="M11.6668 10H8.3335" stroke="#00C7BE" stroke-width="1.25" stroke-linecap="round" stroke-linejoin="round"/>
<path d="M5.4165 9.16667L8.33317 2.5M12.4998 2.5L14.5832 6.66667" stroke="#00C7BE" stroke-width="1.25" stroke-linecap="round"/>
</svg>
