<svg width="20" height="20" viewBox="0 0 20 20" fill="none" xmlns="http://www.w3.org/2000/svg">
<path d="M14.5835 4.1665C15.2738 4.1665 15.8335 4.72615 15.8335 5.4165C15.8335 6.10686 15.2738 6.6665 14.5835 6.6665C13.8932 6.6665 13.3335 6.10686 13.3335 5.4165C13.3335 4.72615 13.8932 4.1665 14.5835 4.1665Z" stroke="#34C759" stroke-width="1.25" stroke-linecap="round" stroke-linejoin="round"/>
<path d="M2.3117 9.28642C1.47574 10.2201 1.45776 11.6287 2.22497 12.6196C3.74743 14.5859 5.41379 16.2523 7.38011 17.7747C8.37101 18.5419 9.77959 18.5239 10.7133 17.688C13.2481 15.4183 15.5694 13.0464 17.8098 10.4398C18.0313 10.1821 18.1698 9.86625 18.2008 9.52784C18.3383 8.03149 18.6208 3.7204 17.4501 2.54962C16.2793 1.37885 11.9682 1.66131 10.4718 1.7988C10.1334 1.8299 9.81759 1.96845 9.55984 2.18993C6.95327 4.43022 4.58135 6.7516 2.3117 9.28642Z" stroke="#34C759" stroke-width="1.25"/>
<path d="M11.4905 10.3053C11.5082 9.97112 11.602 9.35979 11.0939 8.8952M11.0939 8.8952C10.9367 8.75145 10.7218 8.6217 10.4292 8.51854C9.38208 8.14949 8.09586 9.38479 9.00575 10.5155C9.49483 11.1233 9.87192 11.3103 9.83642 12.0005C9.81142 12.486 9.3345 12.9933 8.70592 13.1865C8.15983 13.3544 7.55747 13.1321 7.17647 12.7064C6.71127 12.1866 6.75825 11.6965 6.75427 11.483M11.0939 8.8952L11.6673 8.32178M7.21792 12.7712L6.67334 13.3158" stroke="#34C759" stroke-width="1.25" stroke-linecap="round" stroke-linejoin="round"/>
</svg>
