<svg width="20" height="20" viewBox="0 0 20 20" fill="none" xmlns="http://www.w3.org/2000/svg">
<path d="M10.8332 5.83333C10.8332 7.67428 9.34075 9.16667 7.49984 9.16667C5.65889 9.16667 4.1665 7.67428 4.1665 5.83333C4.1665 3.99238 5.65889 2.5 7.49984 2.5C9.34075 2.5 10.8332 3.99238 10.8332 5.83333Z" stroke="#30B0C7" stroke-width="1.5"/>
<path d="M12.5 9.16667C14.3409 9.16667 15.8333 7.67428 15.8333 5.83333C15.8333 3.99238 14.3409 2.5 12.5 2.5" stroke="#30B0C7" stroke-width="1.5" stroke-linecap="round" stroke-linejoin="round"/>
<path d="M9.1665 11.6665H5.83317C3.53199 11.6665 1.6665 13.532 1.6665 15.8332C1.6665 16.7537 2.4127 17.4998 3.33317 17.4998H11.6665C12.587 17.4998 13.3332 16.7537 13.3332 15.8332C13.3332 13.532 11.4677 11.6665 9.1665 11.6665Z" stroke="#30B0C7" stroke-width="1.5" stroke-linejoin="round"/>
<path d="M14.1665 11.6665C16.4677 11.6665 18.3332 13.532 18.3332 15.8332C18.3332 16.7537 17.587 17.4998 16.6665 17.4998H15.4165" stroke="#30B0C7" stroke-width="1.5" stroke-linecap="round" stroke-linejoin="round"/>
</svg>
