<svg width="20" height="20" viewBox="0 0 20 20" fill="none" xmlns="http://www.w3.org/2000/svg">
<path d="M10.8332 18.3332C10.1513 18.3332 9.5 18.0488 8.19726 17.4802C6.67678 16.8165 5.51279 16.3084 4.70524 15.8332H1.6665M10.8332 18.3332C11.515 18.3332 12.1663 18.0488 13.4691 17.4802C16.7118 16.0648 18.3332 15.357 18.3332 14.1665V5.4165M10.8332 18.3332V9.1665M3.33317 5.4165V7.9165" stroke="#FF2D55" stroke-width="1.25" stroke-linecap="round" stroke-linejoin="round"/>
<path d="M7.77176 8.07599L5.33743 6.89805C4.00147 6.25159 3.3335 5.92836 3.3335 5.4165C3.3335 4.90465 4.00147 4.58142 5.33743 3.93496L7.77176 2.75702C9.27416 2.03001 10.0254 1.6665 10.8335 1.6665C11.6416 1.6665 12.3928 2.03 13.8952 2.75702L16.3296 3.93496C17.6655 4.58142 18.3335 4.90465 18.3335 5.4165C18.3335 5.92836 17.6655 6.25159 16.3296 6.89805L13.8952 8.07599C12.3928 8.803 11.6416 9.1665 10.8335 9.1665C10.0254 9.1665 9.27416 8.803 7.77176 8.07599Z" stroke="#FF2D55" stroke-width="1.25" stroke-linecap="round" stroke-linejoin="round"/>
<path d="M15.114 3.34619L6.55615 7.48721" stroke="#FF2D55" stroke-width="1.25" stroke-linecap="round" stroke-linejoin="round"/>
<path d="M1.6665 10.8335H4.1665" stroke="#FF2D55" stroke-width="1.25" stroke-linecap="round" stroke-linejoin="round"/>
<path d="M1.6665 13.3335H4.1665" stroke="#FF2D55" stroke-width="1.25" stroke-linecap="round" stroke-linejoin="round"/>
</svg>
