<svg width="20" height="20" viewBox="0 0 20 20" fill="none" xmlns="http://www.w3.org/2000/svg">
<path d="M14.5248 1.0415H8.80904C7.05071 1.0415 6.04232 2.04979 6.04232 3.80813V4.37484H5.47652C3.69152 4.37484 2.70898 5.35821 2.70898 7.14237V18.3332C2.70898 18.5565 2.82817 18.7624 3.02067 18.874C3.11734 18.9299 3.22565 18.9582 3.33398 18.9582C3.44065 18.9582 3.54821 18.9307 3.64404 18.8757L8.33398 16.1957L13.0239 18.8757C13.2173 18.9865 13.4556 18.9856 13.6473 18.8731C13.8398 18.7615 13.959 18.5557 13.959 18.3332V14.1699L16.3564 15.5423C16.4531 15.5973 16.5598 15.6248 16.6673 15.6248C16.7757 15.6248 16.884 15.5965 16.9806 15.5407C17.1731 15.429 17.2923 15.2232 17.2923 14.9998V3.80813C17.2915 2.04979 16.2831 1.0415 14.5248 1.0415ZM12.7082 17.2557L8.64323 14.9332C8.45156 14.8232 8.21478 14.8232 8.02311 14.9332L3.95817 17.2565V7.14319C3.95817 6.06569 4.39737 5.62565 5.47571 5.62565H11.1898C12.2682 5.62565 12.7074 6.06569 12.7074 7.14319V17.2557H12.7082ZM16.0415 13.9224L13.9582 12.729V7.14237C13.9582 5.35737 12.9748 4.37484 11.1906 4.37484H7.2915V3.80813C7.2915 2.73146 7.73073 2.2915 8.80823 2.2915H14.524C15.6015 2.2915 16.0407 2.73063 16.0407 3.80813V13.9224H16.0415ZM9.53312 7.23403C9.52979 7.23403 9.52651 7.23403 9.52234 7.23403C9.01567 7.23403 8.62236 7.42564 8.33236 7.67898C8.04236 7.42564 7.64987 7.23403 7.14237 7.23403C7.13904 7.23403 7.13493 7.23403 7.13159 7.23403C6.47326 7.23736 5.91901 7.48982 5.52901 7.96482C5.06235 8.53316 4.89234 9.35654 5.06067 10.224C5.46984 12.3365 7.96651 13.4948 8.07235 13.5431C8.15485 13.5806 8.24238 13.599 8.33154 13.599C8.42071 13.599 8.50824 13.5806 8.59074 13.5431C8.69657 13.4948 11.1924 12.3365 11.6024 10.2249C11.7708 9.35652 11.6007 8.53232 11.1349 7.96482C10.7466 7.48899 10.1923 7.23736 9.53312 7.23403ZM10.3764 9.9857C10.1523 11.1382 8.88734 11.9607 8.33317 12.2698C7.779 11.9598 6.51242 11.1382 6.28992 9.9857C6.19575 9.49903 6.2741 9.02822 6.49744 8.75655C6.64744 8.57405 6.85743 8.48405 7.13993 8.48322C7.14077 8.48322 7.14152 8.48322 7.14319 8.48322C7.55736 8.48322 7.72572 8.91315 7.74072 8.95481C7.82572 9.20731 8.06144 9.37403 8.32727 9.37819C8.32977 9.37819 8.33228 9.37819 8.33561 9.37819C8.59728 9.37819 8.8348 9.20984 8.9248 8.96234C8.9423 8.91318 9.11059 8.48322 9.52559 8.48322C9.52643 8.48322 9.52741 8.48322 9.52824 8.48322C9.81157 8.48405 10.0216 8.57405 10.1707 8.75655C10.3924 9.02738 10.4714 9.49903 10.3764 9.9857Z" fill="#5856D6"/>
</svg>
