<svg width="20" height="20" viewBox="0 0 20 20" fill="none" xmlns="http://www.w3.org/2000/svg">
<path d="M16.68 1.66675C15.7522 1.66675 15 3.90532 15 6.66675H16.68C17.4897 6.66675 17.8945 6.66675 18.1451 6.38721C18.3957 6.10766 18.3521 5.73952 18.2648 5.00326C18.0345 3.05961 17.4119 1.66675 16.68 1.66675Z" stroke="#A2845E" stroke-width="1.25"/>
<path d="M15 6.71196V15.5382C15 16.798 15 17.4278 14.615 17.6757C13.9859 18.081 13.0134 17.2312 12.5242 16.9228C12.1201 16.6679 11.9181 16.5405 11.6937 16.5332C11.4514 16.5252 11.2457 16.6474 10.8091 16.9228L9.21666 17.9271C8.78707 18.1979 8.57232 18.3334 8.33332 18.3334C8.09433 18.3334 7.87954 18.1979 7.44999 17.9271L5.8576 16.9228C5.45345 16.6679 5.25137 16.5405 5.0271 16.5332C4.78476 16.5252 4.5791 16.6474 4.14238 16.9228C3.65328 17.2312 2.68071 18.081 2.05161 17.6757C1.66666 17.4278 1.66666 16.798 1.66666 15.5382V6.71196C1.66666 4.33362 1.66666 3.14446 2.39889 2.40561C3.13112 1.66675 4.30963 1.66675 6.66666 1.66675H16.6667" stroke="#A2845E" stroke-width="1.25" stroke-linecap="round" stroke-linejoin="round"/>
<path d="M8.33332 6.66659C7.41285 6.66659 6.66666 7.22623 6.66666 7.91659C6.66666 8.60692 7.41285 9.16659 8.33332 9.16659C9.25382 9.16659 9.99999 9.72625 9.99999 10.4166C9.99999 11.1069 9.25382 11.6666 8.33332 11.6666M8.33332 6.66659C9.05899 6.66659 9.67632 7.01442 9.90516 7.49992M8.33332 6.66659V5.83325M8.33332 11.6666C7.60765 11.6666 6.99029 11.3188 6.76149 10.8333M8.33332 11.6666V12.4999" stroke="#A2845E" stroke-width="1.25" stroke-linecap="round"/>
</svg>
