<svg width="25" height="25" viewBox="0 0 25 25" fill="none" xmlns="http://www.w3.org/2000/svg">
<g clip-path="url(#clip0_2004_2183)">
<path d="M24.0072 6.58672C23.3772 4.26781 20.9654 1.85562 18.6461 1.22562C17.2239 0.87125 15.3189 0.506094 12.7328 0.5C10.1467 0.506094 8.24169 0.87125 6.81951 1.22562C4.5006 1.85562 2.08841 4.26734 1.45841 6.58672C1.10404 8.00891 0.738882 9.91391 0.732788 12.5C0.738882 15.0861 1.10404 16.9911 1.45841 18.4133C2.08841 20.7327 4.5006 23.1444 6.81951 23.7744C8.24169 24.1287 10.1476 24.4939 12.7328 24.5C15.3184 24.4939 17.2239 24.1287 18.6461 23.7744C20.9654 23.1444 23.3772 20.7327 24.0072 18.4133C24.3615 16.9911 24.7267 15.0852 24.7328 12.5C24.7267 9.91391 24.3615 8.00891 24.0072 6.58672Z" fill="#FFF2E8"/>
<path d="M12.7328 4.53125C11.1567 4.53125 9.61604 4.99861 8.30559 5.87423C6.99514 6.74984 5.97376 7.99439 5.37063 9.45049C4.76749 10.9066 4.60968 12.5088 4.91716 14.0546C5.22463 15.6004 5.98358 17.0203 7.09803 18.1348C8.21248 19.2492 9.63238 20.0082 11.1782 20.3156C12.724 20.6231 14.3262 20.4653 15.7823 19.8622C17.2384 19.259 18.4829 18.2377 19.3586 16.9272C20.2342 15.6167 20.7015 14.0761 20.7015 12.5C20.7015 10.3866 19.862 8.35967 18.3675 6.86524C16.8731 5.37081 14.8462 4.53125 12.7328 4.53125Z" fill="#FC8019"/>
<path d="M17.2796 11.1806L12.4876 16.2112C12.3571 16.3482 12.2003 16.4575 12.0265 16.5325C11.8528 16.6075 11.6657 16.6466 11.4765 16.6476H11.4704C11.2823 16.6476 11.0961 16.6098 10.9228 16.5365C10.7495 16.4633 10.5927 16.356 10.4616 16.221L7.91962 13.6021C7.78137 13.4719 7.67094 13.315 7.59499 13.1409C7.51904 12.9668 7.47914 12.7792 7.4777 12.5892C7.47626 12.3993 7.51331 12.2111 7.58661 12.0358C7.65991 11.8606 7.76794 11.7021 7.90419 11.5698C8.04045 11.4374 8.20209 11.3341 8.37937 11.2659C8.55666 11.1978 8.74591 11.1663 8.93571 11.1733C9.12551 11.1803 9.31193 11.2256 9.48372 11.3066C9.6555 11.3877 9.8091 11.5026 9.93524 11.6446L11.4587 13.2145L15.241 9.24228C15.3683 9.10842 15.5207 9.00094 15.6895 8.92598C15.8583 8.85102 16.0402 8.81004 16.2249 8.80538C16.4095 8.80072 16.5932 8.83248 16.7656 8.89883C16.938 8.96519 17.0956 9.06485 17.2295 9.19212C17.3633 9.31939 17.4708 9.47178 17.5458 9.64058C17.6207 9.80939 17.6617 9.99131 17.6664 10.176C17.671 10.3606 17.6393 10.5443 17.5729 10.7167C17.5065 10.8891 17.4069 11.0467 17.2796 11.1806Z" fill="url(#paint0_linear_2004_2183)"/>
</g>
<defs>
<linearGradient id="paint0_linear_2004_2183" x1="14.919" y1="13.7807" x2="10.3515" y2="9.21274" gradientUnits="userSpaceOnUse">
<stop stop-color="#CBF4B4"/>
<stop offset="0.57" stop-color="white"/>
<stop offset="1" stop-color="white"/>
</linearGradient>
<clipPath id="clip0_2004_2183">
<rect width="24" height="24" fill="white" transform="translate(0.732788 0.5)"/>
</clipPath>
</defs>
</svg>
