<svg width="36" height="36" viewBox="0 0 36 36" fill="none" xmlns="http://www.w3.org/2000/svg">
<path fill-rule="evenodd" clip-rule="evenodd" d="M13.0564 7.70046C13.9636 12.5239 18.0025 17.9999 18.0025 17.9999C18.0025 17.9999 22.4809 11.9279 23.0654 6.93982C23.1485 6.5374 23.1924 6.11886 23.1924 5.6892C23.1924 2.54712 20.848 -4.3869e-05 17.9561 -4.3869e-05C15.0641 -4.3869e-05 12.7197 2.54712 12.7197 5.6892C12.7197 6.39728 12.8388 7.07515 13.0564 7.70046ZM17.9943 18.0073C17.4199 17.5941 12.2797 13.9651 7.72107 13.1122C7.09394 12.895 6.41407 12.7762 5.70388 12.7762C2.55374 12.7762 4.57764e-05 15.1145 4.57764e-05 17.9991C4.57764e-05 20.8836 2.55374 23.222 5.70388 23.222C6.13287 23.222 6.5508 23.1786 6.95272 23.0964C11.468 22.5728 16.8718 18.879 17.8808 18.165C17.1661 19.1697 13.4564 24.5679 12.9351 29.0748C12.8539 29.4727 12.8111 29.8864 12.8111 30.3109C12.8111 33.453 15.1555 36.0001 18.0474 36.0001C20.9394 36.0001 23.2837 33.453 23.2837 30.3109C23.2837 29.6 23.1637 28.9195 22.9445 28.2921C22.1271 23.9608 18.7881 19.1059 18.1174 18.1632C19.1176 18.8713 24.5262 22.5711 29.0458 23.0966C29.4483 23.179 29.8668 23.2225 30.2964 23.2225C33.4465 23.2225 36.0002 20.8841 36.0002 17.9996C36.0002 15.1151 33.4465 12.7767 30.2964 12.7767C29.5856 12.7767 28.9053 12.8957 28.2778 13.1132C23.7169 13.9676 18.5751 17.5992 18.0061 18.0086C18.0019 18.0028 17.9997 17.9999 17.9997 17.9999C17.9997 17.9999 17.9979 18.0024 17.9943 18.0073Z" fill="url(#paint0_radial_1321_4189)"/>
<defs>
<radialGradient id="paint0_radial_1321_4189" cx="0" cy="0" r="1" gradientUnits="userSpaceOnUse" gradientTransform="translate(18 18) rotate(90) scale(60.3692)">
<stop stop-color="white"/>
<stop offset="1" stop-color="white"/>
</radialGradient>
</defs>
</svg>
