<svg width="20" height="20" viewBox="0 0 20 20" fill="none" xmlns="http://www.w3.org/2000/svg">
<path d="M2.08331 9.99967C2.08331 6.4749 2.08331 4.71251 3.08162 3.54364C3.22338 3.37766 3.37796 3.22307 3.54395 3.08132C4.71281 2.08301 6.4752 2.08301 9.99998 2.08301C13.5247 2.08301 15.2871 2.08301 16.456 3.08132C16.622 3.22307 16.7766 3.37766 16.9183 3.54364C17.9166 4.71251 17.9166 6.4749 17.9166 9.99967C17.9166 13.5244 17.9166 15.2868 16.9183 16.4557C16.7766 16.6217 16.622 16.7763 16.456 16.918C15.2871 17.9163 13.5247 17.9163 9.99998 17.9163C6.4752 17.9163 4.71281 17.9163 3.54395 16.918C3.37796 16.7763 3.22338 16.6217 3.08162 16.4557C2.08331 15.2868 2.08331 13.5244 2.08331 9.99967Z" stroke="#30B0C7" stroke-width="1.25"/>
<path d="M12.2585 8.38457C12.1759 7.74902 11.4462 6.72217 10.134 6.72215C8.60935 6.72212 7.96782 7.56654 7.83764 7.98875C7.63456 8.55349 7.67518 9.71457 9.46227 9.84116C11.6962 9.99949 12.5911 10.2632 12.4773 11.6303C12.3634 12.9974 11.1181 13.2928 10.134 13.2611C9.14985 13.2295 7.53972 12.7774 7.47723 11.5614M9.97785 5.83203V6.72517M9.97785 13.2529V14.1653" stroke="#30B0C7" stroke-width="1.25" stroke-linecap="round"/>
</svg>
