<svg width="22" height="22" viewBox="0 0 22 22" fill="none" xmlns="http://www.w3.org/2000/svg">
<path d="M2.23193 11.4411C1.85286 7.47883 1.27845 4.21862 1.2702 4.16968L0 4.38998C0.0125898 4.46363 1.28906 11.8172 1.28906 17.815H2.57812C2.57812 16.5575 2.52227 15.2439 2.43629 13.9478H6.48828V17.815H7.77734V12.6588C7.77734 11.4797 6.99952 11.3697 5.8337 11.3697L3.31835 11.3703C2.90426 11.3703 2.53877 11.3796 2.23193 11.4411Z" fill="#FC8019"/>
<path d="M10.3555 16.5259H9.06641V17.8149H12.9336V16.5259H11.6445V8.7915H16.8008V6.21338H5.19922V8.7915H10.3555V16.5259Z" fill="#FC8019"/>
<path d="M22 4.38998L20.7298 4.16968C20.7216 4.21862 20.147 7.47879 19.7679 11.441C19.4611 11.3796 19.0957 11.3703 18.6817 11.3703L16.1663 11.3696C15.0004 11.3696 14.2227 11.4797 14.2227 12.6587V17.815H15.5117V13.9473H19.5637C19.4777 15.2435 19.4219 16.5575 19.4219 17.815H20.7109C20.7109 11.8172 21.9874 4.46363 22 4.38998Z" fill="#FC8019"/>
</svg>
