<svg width="16" height="16" viewBox="0 0 16 16" fill="none" xmlns="http://www.w3.org/2000/svg">
<path d="M7.24924 14.3417L5.89567 13.5383C5.55215 13.3344 5.38038 13.2324 5.18975 13.2266C4.98375 13.2202 4.80895 13.318 4.43774 13.5383C4.022 13.7851 3.19533 14.4648 2.66059 14.1407C2.33337 13.9423 2.33337 13.4384 2.33337 12.4306V5.3335C2.33337 3.44788 2.33337 2.50507 2.91916 1.91928C3.50495 1.3335 4.44775 1.3335 6.33337 1.3335H9.66671C11.5523 1.3335 12.4951 1.3335 13.0809 1.91928C13.6667 2.50507 13.6667 3.44788 13.6667 5.3335V12.4306C13.6667 13.4384 13.6667 13.9423 13.3395 14.1407C12.8048 14.4648 11.9781 13.7851 11.5623 13.5383C11.2188 13.3344 11.047 13.2324 10.8564 13.2266C10.6504 13.2202 10.4756 13.318 10.1044 13.5383L8.75084 14.3417C8.38577 14.5584 8.20317 14.6668 8.00004 14.6668C7.79691 14.6668 7.61431 14.5584 7.24924 14.3417Z" stroke="#00932C" stroke-width="1.25" stroke-linecap="round" stroke-linejoin="round"/>
<path d="M10 5.3335L6 9.3335" stroke="#00932C" stroke-width="1.25" stroke-linecap="round" stroke-linejoin="round"/>
<path d="M10 9.3335H9.994M6.00598 5.3335H6" stroke="#00932C" stroke-width="1.66667" stroke-linecap="round" stroke-linejoin="round"/>
</svg>
