<svg width="22" height="22" viewBox="0 0 22 22" fill="none" xmlns="http://www.w3.org/2000/svg">
<path d="M3.66666 17.092V7.38311C3.66666 4.76694 3.66666 3.45885 4.47211 2.64612C5.27757 1.83337 6.57393 1.83337 9.16666 1.83337H12.8333C15.426 1.83337 16.7224 1.83337 17.5278 2.64612C18.3333 3.45885 18.3333 4.76694 18.3333 7.38311V17.092C18.3333 18.4777 18.3333 19.1706 17.9098 19.4433C17.2178 19.889 16.1481 18.9543 15.61 18.6151C15.1654 18.3347 14.9432 18.1945 14.6964 18.1864C14.4299 18.1776 14.2036 18.3121 13.7233 18.6151L11.9717 19.7197C11.4991 20.0177 11.2629 20.1667 11 20.1667C10.7371 20.1667 10.5009 20.0177 10.0283 19.7197L8.27669 18.6151C7.83213 18.3347 7.60984 18.1945 7.36314 18.1864C7.09657 18.1776 6.87034 18.3121 6.38995 18.6151C5.85194 18.9543 4.78212 19.889 4.09011 19.4433C3.66666 19.1706 3.66666 18.4777 3.66666 17.092Z" stroke="#06A6FF" stroke-width="1.25" stroke-linecap="round" stroke-linejoin="round"/>
<path d="M10.0833 10.0834H7.33334" stroke="#06A6FF" stroke-width="1.25" stroke-linecap="round" stroke-linejoin="round"/>
<path d="M12.8333 6.41663H7.33334" stroke="#06A6FF" stroke-width="1.25" stroke-linecap="round" stroke-linejoin="round"/>
</svg>
