<svg width="22" height="22" viewBox="0 0 22 22" fill="none" xmlns="http://www.w3.org/2000/svg">
<path d="M1.83334 4.125H8.02759C8.75694 4.125 9.45644 4.41473 9.97215 4.93046L12.8333 7.79167" stroke="#FC8019" stroke-width="1.25" stroke-linecap="round" stroke-linejoin="round"/>
<path d="M4.58334 12.375H1.83334" stroke="#FC8019" stroke-width="1.25" stroke-linecap="round" stroke-linejoin="round"/>
<path d="M7.79168 6.875L9.62501 8.70833C10.1313 9.21461 10.1313 10.0354 9.62501 10.5417C9.11875 11.0479 8.29794 11.0479 7.79168 10.5417L6.41668 9.16667C5.62771 9.95564 4.37866 10.0444 3.48604 9.37493L3.20834 9.16667" stroke="#FC8019" stroke-width="1.25" stroke-linecap="round" stroke-linejoin="round"/>
<path d="M4.58334 10.0833V14.2083C4.58334 15.9368 4.58334 16.801 5.12032 17.338C5.65728 17.875 6.52153 17.875 8.25001 17.875H16.5C18.2285 17.875 19.0927 17.875 19.6297 17.338C20.1667 16.801 20.1667 15.9368 20.1667 14.2083V11.4583C20.1667 9.72983 20.1667 8.86556 19.6297 8.3286C19.0927 7.79163 18.2285 7.79163 16.5 7.79163H8.70834" stroke="#FC8019" stroke-width="1.25" stroke-linecap="round" stroke-linejoin="round"/>
<path d="M13.9792 12.8333C13.9792 13.7193 13.261 14.4375 12.375 14.4375C11.4891 14.4375 10.7708 13.7193 10.7708 12.8333C10.7708 11.9473 11.4891 11.2291 12.375 11.2291C13.261 11.2291 13.9792 11.9473 13.9792 12.8333Z" stroke="#FC8019" stroke-width="1.25" stroke-linecap="round" stroke-linejoin="round"/>
</svg>
