<svg width="22" height="22" viewBox="0 0 22 22" fill="none" xmlns="http://www.w3.org/2000/svg">
<path d="M18.348 1.83337C17.3274 1.83337 16.5 4.29581 16.5 7.33337H18.348C19.2386 7.33337 19.6839 7.33337 19.9596 7.02588C20.2353 6.71837 20.1873 6.31343 20.0913 5.50353C19.838 3.36552 19.1531 1.83337 18.348 1.83337Z" stroke="#C52127" stroke-width="1.25"/>
<path d="M16.5 7.38311V17.092C16.5 18.4778 16.5 19.1706 16.0765 19.4433C15.3845 19.8891 14.3148 18.9543 13.7767 18.6151C13.3321 18.3347 13.1099 18.1945 12.8631 18.1864C12.5966 18.1776 12.3703 18.3121 11.89 18.6151L10.1383 19.7197C9.6658 20.0177 9.42958 20.1667 9.16668 20.1667C8.90379 20.1667 8.66751 20.0177 8.19501 19.7197L6.44338 18.6151C5.99881 18.3347 5.77653 18.1945 5.52983 18.1864C5.26325 18.1776 5.03703 18.3121 4.55664 18.6151C4.01863 18.9543 2.94881 19.8891 2.2568 19.4433C1.83334 19.1706 1.83334 18.4778 1.83334 17.092V7.38311C1.83334 4.76694 1.83334 3.45885 2.6388 2.64612C3.44426 1.83337 4.74062 1.83337 7.33334 1.83337H18.3333" stroke="#C52127" stroke-width="1.25" stroke-linecap="round" stroke-linejoin="round"/>
<path d="M5.5 5.5H12.8333" stroke="#C52127" stroke-width="1.25" stroke-linecap="round" stroke-linejoin="round"/>
<path d="M7.33333 9.16663H5.5" stroke="#C52127" stroke-width="1.25" stroke-linecap="round" stroke-linejoin="round"/>
<path d="M11.4583 9.96871C10.699 9.96871 10.0833 10.5073 10.0833 11.1718C10.0833 11.8363 10.699 12.375 11.4583 12.375C12.2177 12.375 12.8333 12.9136 12.8333 13.5781C12.8333 14.2426 12.2177 14.7812 11.4583 14.7812M11.4583 9.96871C12.057 9.96871 12.5663 10.3035 12.7551 10.7708M11.4583 9.96871V9.16663M11.4583 14.7812C10.8597 14.7812 10.3504 14.4464 10.1616 13.9791M11.4583 14.7812V15.5833" stroke="#C52127" stroke-width="1.25" stroke-linecap="round"/>
</svg>
