<svg width="24" height="24" viewBox="0 0 24 24" fill="none" xmlns="http://www.w3.org/2000/svg">
<path fill-rule="evenodd" clip-rule="evenodd" d="M11.9998 1.25C11.3525 1.25 10.8875 1.65936 10.6412 1.90644C10.538 2.01 10.4421 2.13129 10.345 2.25393C10.1614 2.48602 9.97396 2.723 9.72609 2.85411C9.4601 2.99481 9.12871 2.89996 8.84338 2.8183C8.79271 2.8038 8.74349 2.78972 8.69636 2.77744C8.39842 2.69989 7.94432 2.58244 7.46313 2.64649C7.25403 2.67432 6.97966 2.74083 6.76709 2.9301C6.51535 3.15425 6.47471 3.43315 6.51152 3.64394C6.55631 3.9004 6.71515 4.11086 6.87107 4.31102L7.76339 5.4599L7.80362 5.51191C8.0202 5.79212 8.23886 6.07503 8.52664 6.28636C8.75302 6.4526 9.03947 6.5 9.32033 6.5H14.6792C14.9601 6.5 15.2465 6.4526 15.4729 6.28636C15.7607 6.07504 15.9793 5.79215 16.1959 5.51194L16.2362 5.4599L17.1285 4.31102C17.2844 4.11086 17.4432 3.90039 17.488 3.64394C17.5248 3.43315 17.4842 3.15425 17.2325 2.9301C17.0199 2.74083 16.7455 2.67432 16.5364 2.64649C16.0552 2.58244 15.6011 2.69989 15.3032 2.77744C15.2561 2.78972 15.2069 2.8038 15.1562 2.81829C14.8708 2.89995 14.5395 2.9948 14.2735 2.85411C14.0256 2.723 13.8381 2.48602 13.6545 2.25393C13.5574 2.13129 13.4615 2.01001 13.3583 1.90644C13.112 1.65936 12.647 1.25 11.9998 1.25ZM21.4341 16.8954C20.8806 13.5816 19.2509 10.4506 16.8357 8.11274C16.735 8.01526 16.6846 7.9665 16.5726 7.88473C16.3475 7.72042 15.9452 7.5576 15.6693 7.51914C15.5319 7.5 15.4331 7.5 15.2356 7.5H8.76433C8.56681 7.5 8.46805 7.5 8.3307 7.51914C8.05471 7.5576 7.6524 7.72042 7.42736 7.88473C7.3232 7.96078 7.23069 8.04847 7.13823 8.13796C5.3201 9.89741 3.23598 12.883 2.56588 16.8954C2.28257 18.5918 2.93732 20.0804 4.06254 21.12C5.17649 22.1493 6.75585 22.75 8.40305 22.75H15.5969C17.2441 22.75 18.8235 22.1493 19.9374 21.12C21.0626 20.0804 21.7174 18.5918 21.4341 16.8954ZM12.663 11.8047C12.663 11.3905 12.3272 11.0547 11.913 11.0547C11.4988 11.0547 11.163 11.3905 11.163 11.8047V11.9182C10.7746 12.0091 10.4162 12.1703 10.115 12.3925C9.62742 12.7523 9.25 13.31 9.25 13.9941C9.25 14.5757 9.46084 15.1396 10.0157 15.5134C10.5072 15.8445 11.169 15.954 11.913 15.954C12.5663 15.954 12.907 16.0546 13.0685 16.1599C13.1625 16.2212 13.25 16.3109 13.25 16.6155C13.25 16.8375 13.1711 16.9552 13.0025 17.0565C12.7884 17.185 12.4211 17.2771 11.913 17.2771C11.3796 17.2771 10.9651 17.1019 10.7472 16.9069C10.4385 16.6307 9.96439 16.657 9.68816 16.9656C9.41192 17.2743 9.43821 17.7484 9.74686 18.0246C10.1231 18.3614 10.619 18.5922 11.163 18.7026V18.8047C11.163 19.2189 11.4988 19.5547 11.913 19.5547C12.3272 19.5547 12.663 19.2189 12.663 18.8047V18.7221C13.0588 18.6605 13.4423 18.5421 13.7749 18.3423C14.3617 17.9899 14.75 17.4018 14.75 16.6155C14.75 15.9119 14.4896 15.2959 13.8879 14.9035C13.3538 14.5551 12.651 14.454 11.913 14.454C11.2657 14.454 10.971 14.3484 10.8538 14.2694C10.8 14.2332 10.75 14.1921 10.75 13.9941C10.75 13.8987 10.8008 13.7506 11.0056 13.5995C11.2101 13.4486 11.5285 13.3326 11.913 13.3326C12.4478 13.3326 12.8287 13.5521 12.9856 13.7585C13.2363 14.0883 13.7068 14.1524 14.0366 13.9018C14.3663 13.6511 14.4304 13.1806 14.1798 12.8508C13.8229 12.3813 13.2755 12.0619 12.663 11.9185V11.8047Z" fill="#2CB9B0"/>
</svg>
