<svg width="24" height="24" viewBox="0 0 24 24" fill="none" xmlns="http://www.w3.org/2000/svg">
<path fill-rule="evenodd" clip-rule="evenodd" d="M12 5C7.58172 5 4 8.58172 4 13C4 17.4183 7.58172 21 12 21C16.4183 21 20 17.4183 20 13C20 8.58172 16.4183 5 12 5ZM12.8205 10.1282C12.8205 9.67505 12.4532 9.30769 12 9.30769C11.5468 9.30769 11.1795 9.67505 11.1795 10.1282V13.4103C11.1795 13.6279 11.266 13.8366 11.4198 13.9904L13.0608 15.6315C13.3813 15.9519 13.9008 15.9519 14.2212 15.6315C14.5416 15.3111 14.5416 14.7915 14.2212 14.4711L12.8205 13.0704V10.1282Z" fill="#5E37E0"/>
<path fill-rule="evenodd" clip-rule="evenodd" d="M11.1709 4.61905V5.02381C11.1709 5.4709 11.5421 5.83334 12 5.83334C12.4579 5.83334 12.8291 5.4709 12.8291 5.02381V4.61905H13.6582C14.1161 4.61905 14.4872 4.25661 14.4872 3.80952C14.4872 3.36244 14.1161 3 13.6582 3H12H10.3419C9.88396 3 9.51278 3.36244 9.51278 3.80952C9.51278 4.25661 9.88396 4.61905 10.3419 4.61905H11.1709ZM6.78272 16.999C7.10649 17.3152 7.10649 17.8277 6.78272 18.1439L5.12457 19.7629C4.80079 20.079 4.27586 20.079 3.95208 19.7629C3.62831 19.4468 3.62831 18.9342 3.95208 18.6181L5.61023 16.999C5.93401 16.6829 6.45894 16.6829 6.78272 16.999ZM17.2173 16.999C17.541 16.6829 18.066 16.6829 18.3898 16.999L20.0479 18.6181C20.3717 18.9342 20.3717 19.4468 20.0479 19.7629C19.7242 20.079 19.1992 20.079 18.8754 19.7629L17.2173 18.1439C16.8935 17.8277 16.8935 17.3152 17.2173 16.999ZM4.00468 4.40038C4.44878 3.96675 5.10569 3.81533 5.70153 4.00926L6.45904 4.25581C6.89342 4.39719 7.12818 4.85564 6.98339 5.27978C6.83859 5.70393 6.36907 5.93316 5.93469 5.79178L5.17717 5.54523L4.6582 6.05197L4.9107 6.79161C5.05549 7.21575 4.82073 7.6742 4.38635 7.81559C3.95196 7.95697 3.48244 7.72775 3.33764 7.3036L3.08514 6.56395C2.88652 5.98217 3.0416 5.34076 3.4857 4.90712L4.00468 4.40038ZM18.2985 4.00926C18.8943 3.81533 19.5512 3.96675 19.9954 4.40038L20.5143 4.90712C20.9584 5.34076 21.1135 5.98217 20.9149 6.56395L20.6624 7.3036C20.5176 7.72775 20.0481 7.95697 19.6137 7.81559C19.1793 7.6742 18.9445 7.21575 19.0893 6.79161L19.3418 6.05197L18.8228 5.54523L18.0654 5.79178C17.6309 5.93316 17.1614 5.70393 17.0167 5.27978C16.8718 4.85564 17.1066 4.39719 17.541 4.25581L18.2985 4.00926Z" fill="#5E37E0"/>
</svg>
