<svg width="24" height="24" viewBox="0 0 24 24" fill="none" xmlns="http://www.w3.org/2000/svg">
<g clip-path="url(#clip0_40000777_3300)">
<path d="M4.47855 17.3926C1.99918 17.3926 0 19.3918 0 21.8711C0 22.1945 0.0391996 22.4983 0.093099 22.807C1.33279 23.4538 2.83707 23.836 4.47365 23.836C6.11024 23.836 7.61942 23.4538 8.85421 22.807C8.91301 22.5032 8.94731 22.1994 8.94731 21.8711C8.97671 19.4114 6.95303 17.3926 4.47855 17.3926Z" fill="#2CB9B0"/>
<path d="M4.47847 16.3583C5.78285 16.3583 6.84025 15.3009 6.84025 13.9965C6.84025 12.6922 5.78285 11.6348 4.47847 11.6348C3.1741 11.6348 2.1167 12.6922 2.1167 13.9965C2.1167 15.3009 3.1741 16.3583 4.47847 16.3583Z" fill="#2CB9B0"/>
<path d="M19.5313 17.3926C17.0519 17.3926 15.0527 19.3918 15.0527 21.8711C15.0527 22.1945 15.0919 22.4983 15.1458 22.807C16.3855 23.4538 17.8898 23.836 19.5264 23.836C21.163 23.836 22.6722 23.4538 23.9069 22.807C23.9657 22.5032 24 22.1994 24 21.8711C24.0098 19.4114 22.0107 17.3926 19.5313 17.3926Z" fill="#2CB9B0"/>
<path d="M19.5312 16.3583C20.8356 16.3583 21.893 15.3009 21.893 13.9965C21.893 12.6922 20.8356 11.6348 19.5312 11.6348C18.2268 11.6348 17.1694 12.6922 17.1694 13.9965C17.1694 15.3009 18.2268 16.3583 19.5312 16.3583Z" fill="#2CB9B0"/>
<path d="M12.0049 12.38C13.6415 12.38 15.1507 11.9978 16.3855 11.351C16.4443 11.0472 16.4786 10.7434 16.4786 10.4151C16.4786 7.9357 14.4794 5.93652 12 5.93652C9.52066 5.93652 7.52148 7.9357 7.52148 10.4151C7.52148 10.7385 7.56068 11.0423 7.61458 11.351C8.85917 11.9978 10.3684 12.38 12.0049 12.38Z" fill="#2CB9B0"/>
<path d="M12.0048 4.88761C13.3092 4.88761 14.3666 3.83021 14.3666 2.52584C14.3666 1.22147 13.3092 0.164062 12.0048 0.164062C10.7005 0.164062 9.64307 1.22147 9.64307 2.52584C9.64307 3.83021 10.7005 4.88761 12.0048 4.88761Z" fill="#2CB9B0"/>
<path d="M12.6518 16.192V9.46275C12.6518 9.19325 12.4313 8.96295 12.1569 8.96785C11.8972 8.97765 11.6963 9.18345 11.6963 9.44315V16.1871L7.50605 19.3578C7.31985 19.544 7.31495 19.8429 7.49625 20.034C7.68735 20.23 8.01074 20.2251 8.20184 20.0291L12.152 17.0789L17.1316 21.0389C17.3227 21.2251 17.6265 21.2251 17.8176 21.0389C18.0087 20.8478 18.0087 20.5391 17.8176 20.3529L12.6518 16.192Z" fill="#2CB9B0"/>
</g>
<defs>
<clipPath id="clip0_40000777_3300">
<rect width="24" height="24" fill="white"/>
</clipPath>
</defs>
</svg>
