<svg width="24" height="24" viewBox="0 0 24 24" fill="none" xmlns="http://www.w3.org/2000/svg">
<path d="M2 5.3C2 4.42479 2.34768 3.58542 2.96655 2.96655C3.58542 2.34768 4.42479 2 5.3 2H15.5C16.3752 2 17.2146 2.34768 17.8335 2.96655C18.4523 3.58542 18.8 4.42479 18.8 5.3V9.682C18.253 9.36539 17.632 9.1991 17 9.2C16.4934 9.19947 15.9925 9.30612 15.5301 9.51294C15.0677 9.71975 14.6543 10.0221 14.317 10.4H9.8C9.64087 10.4 9.48826 10.4632 9.37574 10.5757C9.26321 10.6883 9.2 10.8409 9.2 11C9.2 11.1591 9.26321 11.3117 9.37574 11.4243C9.48826 11.5368 9.64087 11.6 9.8 11.6H13.605C13.3304 12.3764 13.3304 13.2236 13.605 14H9.8C9.72121 14 9.64319 14.0155 9.57039 14.0457C9.49759 14.0758 9.43145 14.12 9.37574 14.1757C9.32002 14.2315 9.27583 14.2976 9.24567 14.3704C9.21552 14.4432 9.2 14.5212 9.2 14.6C9.2 14.6788 9.21552 14.7568 9.24567 14.8296C9.27583 14.9024 9.32002 14.9685 9.37574 15.0243C9.43145 15.08 9.49759 15.1242 9.57039 15.1543C9.64319 15.1845 9.72121 15.2 9.8 15.2H14.317C12.787 15.338 11.6 16.635 11.6 18.2C11.6 18.4 11.615 18.6 11.646 18.8H5.3C4.42479 18.8 3.58542 18.4523 2.96655 17.8335C2.34768 17.2146 2 16.3752 2 15.5V5.3ZM6.5 8.3C6.73869 8.3 6.96761 8.20518 7.1364 8.0364C7.30518 7.86761 7.4 7.63869 7.4 7.4C7.4 7.16131 7.30518 6.93239 7.1364 6.7636C6.96761 6.59482 6.73869 6.5 6.5 6.5C6.26131 6.5 6.03239 6.59482 5.8636 6.7636C5.69482 6.93239 5.6 7.16131 5.6 7.4C5.6 7.63869 5.69482 7.86761 5.8636 8.0364C6.03239 8.20518 6.26131 8.3 6.5 8.3ZM7.4 11C7.4 10.7613 7.30518 10.5324 7.1364 10.3636C6.96761 10.1948 6.73869 10.1 6.5 10.1C6.26131 10.1 6.03239 10.1948 5.8636 10.3636C5.69482 10.5324 5.6 10.7613 5.6 11C5.6 11.2387 5.69482 11.4676 5.8636 11.6364C6.03239 11.8052 6.26131 11.9 6.5 11.9C6.73869 11.9 6.96761 11.8052 7.1364 11.6364C7.30518 11.4676 7.4 11.2387 7.4 11ZM6.5 15.5C6.73869 15.5 6.96761 15.4052 7.1364 15.2364C7.30518 15.0676 7.4 14.8387 7.4 14.6C7.4 14.3613 7.30518 14.1324 7.1364 13.9636C6.96761 13.7948 6.73869 13.7 6.5 13.7C6.26131 13.7 6.03239 13.7948 5.8636 13.9636C5.69482 14.1324 5.6 14.3613 5.6 14.6C5.6 14.8387 5.69482 15.0676 5.8636 15.2364C6.03239 15.4052 6.26131 15.5 6.5 15.5ZM9.2 7.4C9.2 7.55913 9.26321 7.71174 9.37574 7.82426C9.48826 7.93679 9.64087 8 9.8 8H14.6C14.7591 8 14.9117 7.93679 15.0243 7.82426C15.1368 7.71174 15.2 7.55913 15.2 7.4C15.2 7.24087 15.1368 7.08826 15.0243 6.97574C14.9117 6.86321 14.7591 6.8 14.6 6.8H9.8C9.64087 6.8 9.48826 6.86321 9.37574 6.97574C9.26321 7.08826 9.2 7.24087 9.2 7.4ZM19.4 12.8C19.4 13.4365 19.1471 14.047 18.6971 14.4971C18.247 14.9471 17.6365 15.2 17 15.2C16.3635 15.2 15.753 14.9471 15.3029 14.4971C14.8529 14.047 14.6 13.4365 14.6 12.8C14.6 12.1635 14.8529 11.553 15.3029 11.1029C15.753 10.6529 16.3635 10.4 17 10.4C17.6365 10.4 18.247 10.6529 18.6971 11.1029C19.1471 11.553 19.4 12.1635 19.4 12.8ZM21.2 18.2C21.2 19.694 20 21.2 17 21.2C14 21.2 12.8 19.7 12.8 18.2C12.8 17.7226 12.9896 17.2648 13.3272 16.9272C13.6648 16.5896 14.1226 16.4 14.6 16.4H19.4C19.8774 16.4 20.3352 16.5896 20.6728 16.9272C21.0104 17.2648 21.2 17.7226 21.2 18.2Z" fill="#F35DA7"/>
</svg>
