<svg width="24" height="24" viewBox="0 0 24 24" fill="none" xmlns="http://www.w3.org/2000/svg">
<path d="M8.21365 16.3972C9.29579 15.6726 10.5995 15.25 12 15.25C13.4005 15.25 14.7042 15.6726 15.7864 16.3972C16.8749 17.126 17.25 18.3957 17.25 19.5C17.25 19.9142 16.9142 20.25 16.5 20.25H7.5C7.08579 20.25 6.75 19.9142 6.75 19.5C6.75 18.3957 7.12515 17.126 8.21365 16.3972Z" fill="#F68A3D"/>
<path d="M8.75 11C8.75 9.20507 10.2051 7.75 12 7.75C13.7949 7.75 15.25 9.20507 15.25 11C15.25 12.7949 13.7949 14.25 12 14.25C10.2051 14.25 8.75 12.7949 8.75 11Z" fill="#F68A3D"/>
<path d="M14.75 6.5C14.75 4.98122 15.9812 3.75 17.5 3.75C19.0188 3.75 20.25 4.98122 20.25 6.5C20.25 8.01878 19.0188 9.25 17.5 9.25C15.9812 9.25 14.75 8.01878 14.75 6.5Z" fill="#F68A3D"/>
<path d="M3.75 6.5C3.75 4.98122 4.98122 3.75 6.5 3.75C8.01878 3.75 9.25 4.98122 9.25 6.5C9.25 8.01878 8.01878 9.25 6.5 9.25C4.98122 9.25 3.75 8.01878 3.75 6.5Z" fill="#F68A3D"/>
<path d="M7.54682 10.3485C7.51597 10.5612 7.5 10.7787 7.5 11C7.5 12.4176 8.15548 13.6821 9.17989 14.5069C8.6532 14.7034 8.15246 14.9533 7.68468 15.25H2.5C2.08579 15.25 1.75 14.9142 1.75 14.5C1.75 13.4263 2.07 12.1626 3.05401 11.4213C4.02988 10.6863 5.21666 10.25 6.5 10.25C6.85725 10.25 7.20701 10.2838 7.54682 10.3485Z" fill="#F68A3D"/>
<path d="M16.3155 15.25H21.5002C21.9144 15.25 22.2502 14.9142 22.2502 14.5C22.2502 13.4263 21.9302 12.1626 20.9462 11.4213C19.9703 10.6863 18.7836 10.25 17.5002 10.25C17.143 10.25 16.7932 10.2838 16.4534 10.3485C16.4843 10.5612 16.5002 10.7787 16.5002 11C16.5002 12.4176 15.8447 13.6821 14.8203 14.5069C15.347 14.7034 15.8478 14.9533 16.3155 15.25Z" fill="#F68A3D"/>
</svg>
