<svg width="24" height="24" viewBox="0 0 24 24" fill="none" xmlns="http://www.w3.org/2000/svg">
<path d="M1.86796 18.3691L3.42925 15.1426L2.31942 13.0361C2.0911 12.466 2.31986 11.8578 2.78123 11.5486C3.37013 11.154 4.25834 11.3155 4.60841 12.1074L4.6106 12.1124L6.72358 16.6633H12.6508L12.6513 16.6612H14.0215L14.021 16.6633H19.5843C20.1903 16.6633 20.8193 17.1114 20.8193 17.9921C20.8193 18.8475 20.2189 19.3195 19.5843 19.3195H18.5416L19.4289 21.0274C19.5986 21.3533 19.4722 21.7549 19.1465 21.9246C18.8209 22.094 18.4197 21.9687 18.2493 21.6419L17.042 19.3194H13.367L12.8338 21.4933C12.7458 21.8498 12.3868 22.0685 12.0288 21.9805C11.6721 21.8928 11.454 21.5325 11.5417 21.1757L11.9969 19.3194H6.86911L5.66179 21.6419C5.49279 21.9663 5.09181 22.0948 4.76458 21.9246C4.43893 21.7549 4.31252 21.3532 4.48224 21.0274L5.36953 19.3195H2.4669C1.97736 19.3195 1.65466 18.8105 1.86796 18.3691ZM4.93154 17.9936L4.19986 16.6049L3.52781 17.9936H4.93154Z" fill="#567DF4"/>
<path d="M7.81422 8.48132C8.80051 4.80155 12.4387 2.53101 16.1238 3.16811L16.3047 2.49312C16.3999 2.1378 16.7628 1.9278 17.1197 2.02286C17.4743 2.11792 17.6848 2.48252 17.5899 2.83737L17.4091 3.51232C20.9182 4.80219 22.9347 8.5888 21.9488 12.2686C21.8543 12.6211 21.4906 12.8347 21.1338 12.7389L15.3656 11.1933L14.3485 15.3315H12.9783L14.0801 10.8488L8.28444 9.29587C7.9284 9.20025 7.71988 8.83465 7.81422 8.48132Z" fill="#567DF4"/>
</svg>
