<svg width="20" height="20" viewBox="0 0 20 20" fill="none" xmlns="http://www.w3.org/2000/svg">
<path fill-rule="evenodd" clip-rule="evenodd" d="M6.4585 2.50033C6.4585 1.69491 7.11141 1.04199 7.91683 1.04199H12.0835C12.8889 1.04199 13.5418 1.69491 13.5418 2.50033C13.5418 3.30574 12.8889 3.95866 12.0835 3.95866H7.91683C7.11141 3.95866 6.4585 3.30574 6.4585 2.50033Z" fill="#F35DA7"/>
<path fill-rule="evenodd" clip-rule="evenodd" d="M5.37484 2.50033C5.37484 2.43018 5.37768 2.3607 5.38325 2.29199H4.58317C3.31752 2.29199 2.2915 3.31801 2.2915 4.58366V16.667C2.2915 17.9327 3.31752 18.9587 4.58317 18.9587H15.4165C16.6822 18.9587 17.7082 17.9327 17.7082 16.667V4.58366C17.7082 3.31801 16.6822 2.29199 15.4165 2.29199H14.6164C14.622 2.3607 14.6248 2.43018 14.6248 2.50033C14.6248 3.90405 13.4869 5.04199 12.0832 5.04199H7.9165C6.51278 5.04199 5.37484 3.90405 5.37484 2.50033ZM6.6665 8.54199C6.32133 8.54199 6.0415 8.82183 6.0415 9.16699C6.0415 9.51216 6.32133 9.79199 6.6665 9.79199H13.3332C13.6783 9.79199 13.9582 9.51216 13.9582 9.16699C13.9582 8.82183 13.6783 8.54199 13.3332 8.54199H6.6665ZM6.6665 12.7087C6.32133 12.7087 6.0415 12.9885 6.0415 13.3337C6.0415 13.6788 6.32133 13.9587 6.6665 13.9587H9.52367C9.86884 13.9587 10.1487 13.6788 10.1487 13.3337C10.1487 12.9885 9.86884 12.7087 9.52367 12.7087H6.6665Z" fill="#F35DA7"/>
</svg>
