<svg width="24" height="24" viewBox="0 0 24 24" fill="none" xmlns="http://www.w3.org/2000/svg">
<path d="M20.947 10.7133C20.9113 10.6218 20.8602 10.5386 20.7951 10.4688L18.6955 8.21939C18.4218 7.92687 17.9793 7.92687 17.7056 8.21939C17.4319 8.51265 17.4319 8.98743 17.7056 9.27995L18.6108 10.2498H14.7001C14.3129 10.2498 14 10.5858 14 10.9998C14 11.4138 14.3129 11.7498 14.7001 11.7498H18.6108L17.7056 12.7197C17.4318 13.0129 17.4318 13.4877 17.7056 13.7802C17.8421 13.9272 18.0213 14 18.2005 14C18.3798 14 18.559 13.9273 18.6955 13.7802L20.7951 11.5308C20.8602 11.4618 20.9113 11.3785 20.947 11.2863C21.0177 11.1028 21.0177 10.8968 20.947 10.7133Z" fill="#C52127"/>
<path d="M16.2222 13.5C15.7921 13.5 15.4445 13.836 15.4445 14.25V18H12.3334V5.99998C12.3334 5.66923 12.1078 5.37673 11.7788 5.2815L9.07755 4.50001H15.4445V8.25001C15.4445 8.66401 15.7921 9 16.2222 9C16.6523 9 17 8.66401 17 8.25001V3.75002C17 3.33599 16.6523 3 16.2222 3H3.77777C3.74977 3 3.72487 3.01125 3.69767 3.01424C3.6611 3.018 3.62767 3.02398 3.59267 3.03224C3.51316 3.05169 3.43731 3.08307 3.3679 3.12523C3.3508 3.13574 3.3298 3.13648 3.31347 3.14846C3.3072 3.153 3.30487 3.16126 3.29863 3.16576C3.21387 3.23024 3.1431 3.30899 3.09177 3.40275C3.08086 3.423 3.07853 3.44476 3.07 3.46575C3.0451 3.52274 3.0179 3.57825 3.00857 3.64125C3.00467 3.66375 3.01167 3.68474 3.0109 3.7065C3.01014 3.72151 3 3.73501 3 3.74999V18.75C3 19.1077 3.2621 19.4152 3.62533 19.485L11.4031 20.985C11.4537 20.9955 11.505 21 11.5556 21C11.7354 21 11.9097 20.9398 12.0487 20.8297C12.1376 20.7594 12.2092 20.6709 12.2584 20.5707C12.3077 20.4704 12.3332 20.3609 12.3333 20.25V19.5H16.2222C16.6523 19.5 17 19.164 17 18.75V14.25C17 13.836 16.6523 13.5 16.2222 13.5Z" fill="#C52127"/>
</svg>
