<svg width="20" height="20" viewBox="0 0 20 20" fill="none" xmlns="http://www.w3.org/2000/svg">
<path fill-rule="evenodd" clip-rule="evenodd" d="M5.83333 0.833008C6.29357 0.833008 6.66667 1.20611 6.66667 1.66634V3.74967C6.66667 4.20991 6.29357 4.58301 5.83333 4.58301C5.3731 4.58301 5 4.20991 5 3.74967V1.66634C5 1.20611 5.3731 0.833008 5.83333 0.833008ZM10 0.833008C10.4602 0.833008 10.8333 1.20611 10.8333 1.66634V3.74967C10.8333 4.20991 10.4602 4.58301 10 4.58301C9.53975 4.58301 9.16667 4.20991 9.16667 3.74967V1.66634C9.16667 1.20611 9.53975 0.833008 10 0.833008ZM14.1667 0.833008C14.6269 0.833008 15 1.20611 15 1.66634V3.74967C15 4.20991 14.6269 4.58301 14.1667 4.58301C13.7064 4.58301 13.3333 4.20991 13.3333 3.74967V1.66634C13.3333 1.20611 13.7064 0.833008 14.1667 0.833008Z" fill="#00B147"/>
<path fill-rule="evenodd" clip-rule="evenodd" d="M2.2915 4.58366C2.2915 3.31801 3.31752 2.29199 4.58317 2.29199H15.4165C16.6822 2.29199 17.7082 3.31801 17.7082 4.58366V16.667C17.7082 17.9327 16.6822 18.9587 15.4165 18.9587H4.58317C3.31752 18.9587 2.2915 17.9327 2.2915 16.667V4.58366ZM10.2082 8.33366C10.2082 7.98848 10.488 7.70866 10.8332 7.70866H14.1665C14.5117 7.70866 14.7915 7.98848 14.7915 8.33366C14.7915 8.67883 14.5117 8.95866 14.1665 8.95866H10.8332C10.488 8.95866 10.2082 8.67883 10.2082 8.33366ZM10.8332 12.7087C10.488 12.7087 10.2082 12.9885 10.2082 13.3337C10.2082 13.6788 10.488 13.9587 10.8332 13.9587H14.1665C14.5117 13.9587 14.7915 13.6788 14.7915 13.3337C14.7915 12.9885 14.5117 12.7087 14.1665 12.7087H10.8332ZM8.72359 7.01228C8.99317 7.22791 9.03684 7.62122 8.82125 7.89076L7.15455 9.97408C7.04349 10.1129 6.87857 10.1979 6.70107 10.2077C6.52356 10.2175 6.35027 10.1513 6.22456 10.0256L5.39123 9.19224C5.14715 8.94816 5.14715 8.55249 5.39123 8.30838C5.6353 8.0643 6.03104 8.0643 6.27511 8.30838L6.61468 8.64791L7.84513 7.10989C8.06076 6.84035 8.45409 6.79665 8.72359 7.01228ZM8.82125 12.8907C9.03684 12.6212 8.99317 12.2279 8.72359 12.0122C8.45409 11.7967 8.06076 11.8403 7.84513 12.1099L6.61468 13.6479L6.27511 13.3084C6.03104 13.0643 5.6353 13.0643 5.39123 13.3084C5.14715 13.5525 5.14715 13.9482 5.39123 14.1922L6.22456 15.0256C6.35027 15.1513 6.52356 15.2175 6.70107 15.2077C6.87857 15.1979 7.04349 15.1129 7.15455 14.9741L8.82125 12.8907Z" fill="#00B147"/>
</svg>
