<svg width="22" height="22" viewBox="0 0 22 22" fill="none" xmlns="http://www.w3.org/2000/svg">
<path d="M19.1975 15.4324C18.5959 11.8127 16.7229 9.11725 15.0947 7.53404C14.6209 7.07334 14.3841 6.843 13.8607 6.62982C13.3374 6.41663 12.8876 6.41663 11.988 6.41663H10.012C9.11241 6.41663 8.66259 6.41663 8.13928 6.62982C7.61598 6.843 7.37908 7.07334 6.90528 7.53404C5.27708 9.11725 3.40414 11.8127 2.8025 15.4324C2.35485 18.1256 4.83933 20.1666 7.61596 20.1666H14.3841C17.1606 20.1666 19.6452 18.1256 19.1975 15.4324Z" stroke="#18A538" stroke-width="1.25" stroke-linecap="round" stroke-linejoin="round"/>
<path d="M6.65189 4.07267C6.46277 3.79741 6.18866 3.42378 6.7549 3.33859C7.33692 3.25101 7.94127 3.64942 8.53283 3.64123C9.068 3.63383 9.34064 3.39647 9.63315 3.05756C9.94115 2.7007 10.4181 1.83337 11 1.83337C11.5819 1.83337 12.0588 2.7007 12.3668 3.05756C12.6593 3.39647 12.932 3.63383 13.4671 3.64123C14.0587 3.64942 14.6631 3.25101 15.2451 3.33859C15.8113 3.42378 15.5372 3.79741 15.3481 4.07267L14.4929 5.31729C14.1272 5.84971 13.9443 6.11592 13.5615 6.26632C13.1788 6.41671 12.6842 6.41671 11.695 6.41671H10.305C9.3158 6.41671 8.82116 6.41671 8.43842 6.26632C8.05567 6.11592 7.87278 5.84971 7.50699 5.31729L6.65189 4.07267Z" stroke="#18A538" stroke-width="1.25" stroke-linejoin="round"/>
<path d="M12.4912 11.8421C12.293 11.1105 11.2843 10.4503 10.0734 10.9442C8.86261 11.438 8.67028 13.027 10.5018 13.1959C11.3296 13.2722 11.8693 13.1073 12.3634 13.5737C12.8575 14.0399 12.9493 15.3366 11.6861 15.686C10.423 16.0355 9.17218 15.4895 9.03598 14.7141M10.8549 10.0767V10.7737M10.8549 15.7935V16.4933" stroke="#18A538" stroke-width="1.25" stroke-linecap="round" stroke-linejoin="round"/>
</svg>
