<svg width="22" height="22" viewBox="0 0 22 22" fill="none" xmlns="http://www.w3.org/2000/svg">
<path d="M13.7321 6.43091C13.7321 6.43091 14.1905 6.88924 14.6488 7.80591C14.6488 7.80591 16.1046 5.51424 17.3988 5.05591" stroke="#CB30E0" stroke-width="1.25" stroke-linecap="round" stroke-linejoin="round"/>
<path d="M9.16199 1.85295C6.87172 1.75599 5.10232 2.01982 5.10232 2.01982C3.98504 2.09971 1.84388 2.72609 1.8439 6.38422C1.84392 10.0113 1.82021 14.4828 1.8439 16.2653C1.8439 17.3544 2.51822 19.8948 4.8522 20.0309C7.68913 20.1964 12.7992 20.2316 15.1438 20.0309C15.7714 19.9955 17.861 19.5028 18.1254 17.2294C18.3994 14.8742 18.3449 13.2374 18.3449 12.8478" stroke="#CB30E0" stroke-width="1.25" stroke-linecap="round" stroke-linejoin="round"/>
<path d="M20.1666 6.43099C20.1666 8.96229 18.1126 11.0144 15.5789 11.0144C13.0451 11.0144 10.9911 8.96229 10.9911 6.43099C10.9911 3.89969 13.0451 1.84766 15.5789 1.84766C18.1126 1.84766 20.1666 3.89969 20.1666 6.43099Z" stroke="#CB30E0" stroke-width="1.25" stroke-linecap="round"/>
<path d="M6.3988 11.9309H10.0654" stroke="#CB30E0" stroke-width="1.25" stroke-linecap="round"/>
<path d="M6.3988 15.5977H13.7321" stroke="#CB30E0" stroke-width="1.25" stroke-linecap="round"/>
</svg>
