<svg width="20" height="20" viewBox="0 0 20 20" fill="none" xmlns="http://www.w3.org/2000/svg">
<path d="M5.83331 6.98243H9.58331M9.58331 6.98243H12.0833M9.58331 6.98243V5.83301M14.1666 6.98243H12.0833M12.0833 6.98243C11.6437 8.55434 10.7232 10.0403 9.67256 11.3462M9.67256 11.3462C8.80256 12.4275 7.84335 13.3853 6.99403 14.1663M9.67256 11.3462C9.1369 10.7181 8.3869 9.70184 8.1726 9.24209M9.67256 11.3462L11.2797 13.0169" stroke="#AF52DE" stroke-width="1.25" stroke-linecap="round" stroke-linejoin="round"/>
<path d="M2.08331 9.99967C2.08331 6.26772 2.08331 4.40175 3.24268 3.24237C4.40205 2.08301 6.26803 2.08301 9.99998 2.08301C13.7319 2.08301 15.5979 2.08301 16.7573 3.24237C17.9166 4.40175 17.9166 6.26772 17.9166 9.99967C17.9166 13.7316 17.9166 15.5976 16.7573 16.757C15.5979 17.9163 13.7319 17.9163 9.99998 17.9163C6.26803 17.9163 4.40205 17.9163 3.24268 16.757C2.08331 15.5976 2.08331 13.7316 2.08331 9.99967Z" stroke="#AF52DE" stroke-width="1.25"/>
</svg>
