<svg width="20" height="20" viewBox="0 0 20 20" fill="none" xmlns="http://www.w3.org/2000/svg">
<path fill-rule="evenodd" clip-rule="evenodd" d="M10.4482 1.227C10.2008 0.979662 9.79982 0.979679 9.55249 1.227L7.24041 3.53909H4.17291C3.82313 3.53909 3.53958 3.82264 3.53958 4.17242V7.23992L1.22749 9.552C0.980151 9.79934 0.980167 10.2003 1.22749 10.4477L3.53958 12.7598V15.8273C3.53958 16.177 3.82311 16.4606 4.17291 16.4606H7.2404L9.55249 18.7727C9.79982 19.02 10.2008 19.02 10.4482 18.7727L12.7602 16.4606H15.8277C16.1775 16.4606 16.4611 16.177 16.4611 15.8273V12.7598L18.7732 10.4477C19.0205 10.2003 19.0205 9.79934 18.7732 9.552L16.4611 7.23992V4.17242C16.4611 3.82262 16.1775 3.53909 15.8277 3.53909H12.7602L10.4482 1.227ZM12.8219 8.45217L13.3578 8.13062L12.7147 7.05875L12.1788 7.38032C11.0235 8.0735 10.0876 9.20159 9.45566 10.1119C9.22266 10.4476 9.02574 10.7615 8.86924 11.0253C8.69724 10.8637 8.53241 10.7248 8.38808 10.6105C8.23432 10.489 7.94308 10.2902 7.83492 10.2163L7.82473 10.2094L7.29048 9.885L6.64177 10.9535L7.17503 11.2773C7.2533 11.3308 7.47988 11.486 7.61268 11.591C7.88058 11.8028 8.21757 12.1049 8.51233 12.4733L9.13033 13.2458L9.56274 12.3557C9.60258 12.2791 9.71966 12.0547 9.79858 11.9148C9.95666 11.6348 10.1886 11.2482 10.4826 10.8248C11.0798 9.96425 11.8939 9.009 12.8219 8.45217Z" fill="white"/>
</svg>
