<svg width="20" height="20" viewBox="0 0 20 20" fill="none" xmlns="http://www.w3.org/2000/svg">
<path d="M11.25 12.5H5.00001C3.42866 12.5 2.64298 12.5 2.15483 12.0118C1.66667 11.5237 1.66667 10.738 1.66667 9.16667V5.83333C1.66667 4.26198 1.66667 3.47631 2.15483 2.98816C2.64298 2.5 3.42866 2.5 5.00001 2.5H15C16.5713 2.5 17.357 2.5 17.8452 2.98816C18.3333 3.47631 18.3333 4.26198 18.3333 5.83333V10C18.3333 10.7766 18.3333 11.1648 18.2065 11.4712C18.0373 11.8795 17.7128 12.204 17.3045 12.3732C16.9982 12.5 16.6099 12.5 15.8333 12.5" stroke="#5856D6" stroke-width="1.25" stroke-linecap="round" stroke-linejoin="round"/>
<path d="M11.6667 7.49967C11.6667 8.42009 10.9205 9.16634 9.99999 9.16634C9.07949 9.16634 8.33333 8.42009 8.33333 7.49967C8.33333 6.5792 9.07949 5.83301 9.99999 5.83301C10.9205 5.83301 11.6667 6.5792 11.6667 7.49967Z" stroke="#5856D6" stroke-width="1.25" stroke-linecap="round" stroke-linejoin="round"/>
<path d="M10.8333 14.1667C10.8333 12.7859 11.9526 11.6667 13.3333 11.6667V10C13.3333 8.61925 14.4526 7.5 15.8333 7.5V12.0833C15.8333 14.0288 15.8333 15.0016 15.4398 15.738C15.129 16.3194 14.6527 16.7957 14.0713 17.1064C13.3349 17.5 12.3622 17.5 10.4167 17.5H10C8.44683 17.5 7.67029 17.5 7.05772 17.2462C6.24096 16.9079 5.59205 16.259 5.25373 15.4423C5 14.8297 5 14.0532 5 12.5" stroke="#5856D6" stroke-width="1.25" stroke-linecap="round" stroke-linejoin="round"/>
</svg>
