<svg width="20" height="20" viewBox="0 0 20 20" fill="none" xmlns="http://www.w3.org/2000/svg">
<path d="M15.8333 9.16699C15.8333 8.48574 15.8333 7.85916 15.7065 7.55288C15.5796 7.24659 15.3387 7.00573 14.857 6.52402L10.9099 2.57689C10.4942 2.16116 10.2863 1.95328 10.0287 1.83012C9.97517 1.80449 9.92033 1.78176 9.86433 1.762C9.59508 1.66699 9.30117 1.66699 8.71317 1.66699C6.00902 1.66699 4.65692 1.66699 3.74111 2.40538C3.55609 2.55456 3.38757 2.72308 3.23839 2.9081C2.5 3.82392 2.5 5.17601 2.5 7.88019V11.667C2.5 14.8097 2.5 16.3811 3.47631 17.3573C4.45262 18.3337 6.02397 18.3337 9.16667 18.3337H15.8333M10 2.08366V2.50033C10 4.85735 10 6.03586 10.7323 6.76809C11.4645 7.50033 12.643 7.50033 15 7.50033H15.4167" stroke="#FC8019" stroke-width="1.25" stroke-linecap="round" stroke-linejoin="round"/>
<path d="M17.5 11.667H15.8334C15.3731 11.667 15 12.0401 15 12.5003V13.7503M15 13.7503V15.8337M15 13.7503H17.0834M5.83337 15.8337V14.167M5.83337 14.167V11.667H7.08337C7.77373 11.667 8.33337 12.2267 8.33337 12.917C8.33337 13.6073 7.77373 14.167 7.08337 14.167H5.83337ZM10.4167 11.667H11.4881C12.2771 11.667 12.9167 12.2888 12.9167 13.0559V14.4447C12.9167 15.2118 12.2771 15.8337 11.4881 15.8337H10.4167V11.667Z" stroke="#FC8019" stroke-width="1.25" stroke-linecap="round" stroke-linejoin="round"/>
</svg>
