<svg width="126" height="148" viewBox="0 0 126 148" fill="none" xmlns="http://www.w3.org/2000/svg">
<path d="M79.5701 0L46.4079 0C33.9732 0 23.8926 10.0094 23.8926 22.3569V69.3235H34.6484V23.6841C34.6484 16.5023 40.5119 10.6804 47.7446 10.6804H78.2332C85.4661 10.6804 91.3293 16.5026 91.3293 23.6844V69.3235H102.085V22.3569C102.085 10.0094 92.0048 0 79.5701 0Z" fill="#5B5B5B"/>
<path d="M0 66.384L0 83.6902C0 118.829 28.201 147.314 62.9885 147.314C97.7759 147.314 125.977 118.829 125.977 83.69V66.384C125.977 56.044 117.678 47.6616 107.442 47.6616H18.5356C8.29865 47.6614 0 56.0438 0 66.384Z" fill="#FC8019"/>
<path d="M75.5251 120.442C89.6395 114.61 96.3421 98.4711 90.4957 84.3934C84.6493 70.3157 68.4678 63.6306 54.3534 69.4617C40.2389 75.2929 33.5363 91.4323 39.3827 105.51C45.2291 119.588 61.4106 126.273 75.5251 120.442Z" fill="#DE6214"/>
<path d="M73 86.0308C73 80.8797 68.7019 76.7358 63.5081 77.0132C58.8848 77.2601 55.1367 81.1215 55.0038 85.7654C54.9064 89.1545 56.6772 92.1287 59.3522 93.7536L57.7185 114.427C57.7027 114.627 57.7284 114.829 57.794 115.019C57.8596 115.209 57.9637 115.384 58.0998 115.531C58.2359 115.679 58.401 115.797 58.5847 115.878C58.7684 115.958 58.9667 116 59.1673 116H68.8327C69.0332 116 69.2315 115.958 69.4153 115.878C69.599 115.797 69.7641 115.679 69.9002 115.531C70.0363 115.384 70.1404 115.209 70.206 115.019C70.2716 114.829 70.2973 114.627 70.2814 114.427L68.648 93.7536C71.2531 92.1715 73 89.3094 73 86.0308Z" fill="white"/>
</svg>
