<svg width="36" height="36" viewBox="0 0 36 36" fill="none" xmlns="http://www.w3.org/2000/svg">
<path fill-rule="evenodd" clip-rule="evenodd" d="M18.4375 3C14.7112 3 11.6815 5.84459 11.0436 9.35127C10.8708 9.33938 10.6964 9.33333 10.5208 9.33333C6.3672 9.33333 3 12.7005 3 16.8542C3 19.3873 4.25242 21.6263 6.16869 22.9883C5.66093 24.0015 5.375 25.1453 5.375 26.3542C5.375 30.5079 8.7422 33.875 12.8958 33.875C15.09 33.875 17.0636 32.9351 18.4375 31.4386C19.8114 32.9351 21.785 33.875 23.9792 33.875C28.1329 33.875 31.5 30.5079 31.5 26.3542C31.5 25.1453 31.214 24.0015 30.7063 22.9883C32.6226 21.6263 33.875 19.3873 33.875 16.8542C33.875 12.7005 30.5079 9.33333 26.3542 9.33333C26.1786 9.33333 26.0043 9.33938 25.8314 9.35127C25.1936 5.84459 22.1639 3 18.4375 3ZM18.4375 23.9792C21.0609 23.9792 23.1875 21.8526 23.1875 19.2292C23.1875 16.6057 21.0609 14.4792 18.4375 14.4792C15.8141 14.4792 13.6875 16.6057 13.6875 19.2292C13.6875 21.8526 15.8141 23.9792 18.4375 23.9792Z" fill="white"/>
</svg>
