<svg width="20" height="20" viewBox="0 0 20 20" fill="none" xmlns="http://www.w3.org/2000/svg">
<path d="M6.12832 15.0003C4.35906 15.0003 3.47442 15.0003 2.8446 14.6227C2.43296 14.3758 2.10134 14.0229 1.88731 13.6038C1.55985 12.9626 1.64787 12.1147 1.82392 10.4191C1.97088 9.00358 2.04436 8.29578 2.40572 7.776C2.64296 7.43473 2.96385 7.15503 3.34 6.9616C3.91292 6.66699 4.65139 6.66699 6.12832 6.66699H13.8717C15.3487 6.66699 16.0871 6.66699 16.66 6.9616C17.0362 7.15503 17.3571 7.43473 17.5944 7.776C17.9557 8.29578 18.0292 9.00358 18.1761 10.4191C18.3522 12.1147 18.4402 12.9626 18.1127 13.6038C17.8987 14.0229 17.5671 14.3758 17.1554 14.6227C16.5256 15.0003 15.641 15.0003 13.8717 15.0003" stroke="#FC8019" stroke-width="1.25"/>
<path d="M14.1666 6.66699V5.00033C14.1666 3.42898 14.1666 2.6433 13.6785 2.15515C13.1903 1.66699 12.4046 1.66699 10.8333 1.66699H9.16665C7.5953 1.66699 6.80962 1.66699 6.32147 2.15515C5.83331 2.6433 5.83331 3.42898 5.83331 5.00033V6.66699" stroke="#FC8019" stroke-width="1.25" stroke-linejoin="round"/>
<path d="M11.6572 13.333H8.34273C7.77166 13.333 7.48612 13.333 7.24317 13.4238C6.91924 13.5447 6.64186 13.7797 6.45515 14.0913C6.31511 14.325 6.24586 14.6256 6.10735 15.2267C5.89092 16.1659 5.78271 16.6355 5.85631 17.0121C5.95444 17.5142 6.26029 17.9392 6.68541 18.1642C7.00426 18.333 7.45041 18.333 8.34273 18.333H11.6572C12.5496 18.333 12.9957 18.333 13.3146 18.1642C13.7396 17.9392 14.0456 17.5142 14.1436 17.0121C14.2172 16.6355 14.1091 16.1659 13.8926 15.2267C13.7541 14.6256 13.6848 14.325 13.5448 14.0913C13.3581 13.7797 13.0807 13.5447 12.7568 13.4238C12.5138 13.333 12.2283 13.333 11.6572 13.333Z" stroke="#FC8019" stroke-width="1.25" stroke-linejoin="round"/>
<path d="M15 10H15.0075" stroke="#FC8019" stroke-width="1.66667" stroke-linecap="round" stroke-linejoin="round"/>
</svg>
