<svg width="20" height="20" viewBox="0 0 20 20" fill="none" xmlns="http://www.w3.org/2000/svg">
<path d="M18.3334 10.0003C18.3334 14.6027 14.6024 18.3337 10 18.3337C5.39765 18.3337 1.66669 14.6027 1.66669 10.0003C1.66669 5.39795 5.39765 1.66699 10 1.66699C14.6024 1.66699 18.3334 5.39795 18.3334 10.0003Z" stroke="#007AFF" stroke-width="1.25"/>
<path d="M12.2917 7.91667C12.2917 9.18233 11.2657 10.2083 10 10.2083C8.73434 10.2083 7.70834 9.18233 7.70834 7.91667C7.70834 6.65102 8.73434 5.625 10 5.625C11.2657 5.625 12.2917 6.65102 12.2917 7.91667Z" stroke="#007AFF" stroke-width="1.25"/>
<path d="M4.58328 15.8337L5.05028 15.0164C5.79212 13.7182 7.17272 12.917 8.668 12.917H11.3319C12.8272 12.917 14.2077 13.7182 14.9496 15.0164L15.4166 15.8337" stroke="#007AFF" stroke-width="1.25" stroke-linecap="round" stroke-linejoin="round"/>
</svg>
