<svg width="22" height="22" viewBox="0 0 22 22" fill="none" xmlns="http://www.w3.org/2000/svg">
<path d="M7.33334 14.6667L15.3268 14.0005C17.8279 13.7922 18.3894 13.2458 18.6666 10.7515L19.25 5.5" stroke="#008788" stroke-width="1.25" stroke-linecap="round"/>
<path d="M5.5 5.5H20.1667" stroke="#008788" stroke-width="1.25" stroke-linecap="round"/>
<path d="M5.49999 20.1667C6.51251 20.1667 7.33332 19.3459 7.33332 18.3333C7.33332 17.3208 6.51251 16.5 5.49999 16.5C4.48747 16.5 3.66666 17.3208 3.66666 18.3333C3.66666 19.3459 4.48747 20.1667 5.49999 20.1667Z" stroke="#008788" stroke-width="1.25"/>
<path d="M15.5833 20.1667C16.5959 20.1667 17.4167 19.3459 17.4167 18.3333C17.4167 17.3208 16.5959 16.5 15.5833 16.5C14.5708 16.5 13.75 17.3208 13.75 18.3333C13.75 19.3459 14.5708 20.1667 15.5833 20.1667Z" stroke="#008788" stroke-width="1.25"/>
<path d="M7.33334 18.3334H13.75" stroke="#008788" stroke-width="1.25" stroke-linecap="round"/>
<path d="M1.83334 1.83337H2.71884C3.5848 1.83337 4.33964 2.40591 4.54967 3.22206L7.27699 13.8202C7.41481 14.3558 7.29686 14.9231 6.9559 15.3648L6.07946 16.5" stroke="#008788" stroke-width="1.25" stroke-linecap="round"/>
</svg>
