<svg width="20" height="20" viewBox="0 0 20 20" fill="none" xmlns="http://www.w3.org/2000/svg">
<path d="M1.66669 9.99967C1.66669 6.26772 1.66669 4.40175 2.82605 3.24237C3.98543 2.08301 5.8514 2.08301 9.58335 2.08301C13.3153 2.08301 15.1813 2.08301 16.3407 3.24237C17.5 4.40175 17.5 6.26772 17.5 9.99967C17.5 13.7316 17.5 15.5976 16.3407 16.757C15.1813 17.9163 13.3153 17.9163 9.58335 17.9163C5.8514 17.9163 3.98543 17.9163 2.82605 16.757C1.66669 15.5976 1.66669 13.7316 1.66669 9.99967Z" stroke="#FF2D55" stroke-width="1.25" stroke-linejoin="round"/>
<path d="M10.3032 6.43475L11.0364 7.91338C11.1364 8.11921 11.4031 8.31663 11.628 8.35443L12.9571 8.57709C13.807 8.71993 14.0069 9.34159 13.3945 9.95484L12.3613 10.9967C12.1864 11.1731 12.0905 11.5133 12.1447 11.7569L12.4404 13.0465C12.6738 14.0673 12.1364 14.4622 11.2406 13.9287L9.99494 13.1852C9.76994 13.0508 9.3991 13.0508 9.17002 13.1852L7.9243 13.9287C7.03273 14.4622 6.49112 14.0631 6.72443 13.0465L7.02023 11.7569C7.0744 11.5133 6.97857 11.1731 6.80359 10.9967L5.77037 9.95484C5.1621 9.34159 5.35791 8.71993 6.20782 8.57709L7.53685 8.35443C7.75766 8.31663 8.02429 8.11921 8.12428 7.91338L8.85752 6.43475C9.25752 5.63243 9.90744 5.63243 10.3032 6.43475Z" stroke="#FF2D55" stroke-width="1.25" stroke-linecap="round" stroke-linejoin="round"/>
</svg>
