<svg width="20" height="20" viewBox="0 0 20 20" fill="none" xmlns="http://www.w3.org/2000/svg">
<path d="M7.08398 13.7503C7.66618 12.7439 8.75437 12.0667 10.0006 12.0667C11.247 12.0667 12.3351 12.7439 12.9173 13.7503M11.6674 8.33366C11.6674 9.25416 10.9211 10.0003 10.0007 10.0003C9.0802 10.0003 8.33401 9.25416 8.33401 8.33366C8.33401 7.41318 9.0802 6.66699 10.0007 6.66699C10.9211 6.66699 11.6674 7.41318 11.6674 8.33366Z" stroke="#7500FD" stroke-width="1.25" stroke-linecap="round"/>
<path d="M18.3327 11.6388V8.36067C15.9521 8.36067 14.4041 5.77502 15.6093 3.7221L12.7226 2.08309C11.5025 4.16138 8.49752 4.1613 7.27737 2.08301L4.39062 3.72202C5.5959 5.77497 4.04662 8.36067 1.66602 8.36067V11.6388C4.04658 11.6388 5.59456 14.2244 4.38931 16.2773L7.27606 17.9163C8.49677 15.837 11.5032 15.8369 12.7239 17.9163L15.6107 16.2773C14.4055 14.2243 15.9522 11.6388 18.3327 11.6388Z" stroke="#7500FD" stroke-width="1.25" stroke-linecap="round" stroke-linejoin="round"/>
</svg>
