<svg width="22" height="22" viewBox="0 0 22 22" fill="none" xmlns="http://www.w3.org/2000/svg">
<path d="M16.0417 4.58374C16.801 4.58374 17.4167 5.19935 17.4167 5.95874C17.4167 6.71813 16.801 7.33374 16.0417 7.33374C15.2823 7.33374 14.6667 6.71813 14.6667 5.95874C14.6667 5.19935 15.2823 4.58374 16.0417 4.58374Z" stroke="#34C759" stroke-width="1.25" stroke-linecap="round" stroke-linejoin="round"/>
<path d="M2.54306 10.2156C1.6235 11.2427 1.60372 12.7921 2.44766 13.8821C4.12236 16.0451 5.95536 17.8781 8.11832 19.5527C9.2083 20.3967 10.7577 20.3769 11.7848 19.4574C14.5731 16.9608 17.1266 14.3516 19.5909 11.4843C19.8346 11.2009 19.9869 10.8535 20.0211 10.4812C20.1724 8.83522 20.4831 4.09302 19.1953 2.80517C17.9074 1.51732 13.1652 1.82803 11.5192 1.97927C11.147 2.01348 10.7995 2.16588 10.516 2.40951C7.64879 4.87383 5.03967 7.42734 2.54306 10.2156Z" stroke="#34C759" stroke-width="1.25"/>
<path d="M12.6394 11.3364C12.6589 10.9688 12.762 10.2964 12.2031 9.78531M12.2031 9.78531C12.0301 9.62718 11.7938 9.48446 11.472 9.37097C10.3201 8.96502 8.90526 10.3239 9.90613 11.5677C10.4441 12.2362 10.8589 12.4419 10.8199 13.2011C10.7924 13.7352 10.2678 14.2932 9.57632 14.5058C8.97563 14.6904 8.31302 14.4459 7.89392 13.9776C7.3822 13.4059 7.43388 12.8668 7.4295 12.6318M12.2031 9.78531L12.8339 9.15454M7.93953 14.0489L7.34048 14.648" stroke="#34C759" stroke-width="1.25" stroke-linecap="round" stroke-linejoin="round"/>
</svg>
