<svg width="22" height="22" viewBox="0 0 22 22" fill="none" xmlns="http://www.w3.org/2000/svg">
<path d="M16.0417 10.0829V6.69126C16.0417 4.61708 16.0417 3.57999 15.331 2.93562C14.6203 2.29126 13.4765 2.29126 11.1887 2.29126H7.1446C4.8569 2.29126 3.71305 2.29126 3.00236 2.93562C2.29166 3.57999 2.29166 4.61708 2.29166 6.69126V12.5579C2.29166 14.6321 2.29166 15.6692 3.00236 16.3136C3.71305 16.9579 4.8569 16.9579 7.1446 16.9579H10.0833" stroke="#FC8019" stroke-width="1.25" stroke-linecap="round"/>
<path d="M5.04166 5.95874H13.2917" stroke="#FC8019" stroke-width="1.25" stroke-linecap="round" stroke-linejoin="round"/>
<path d="M5.04166 9.625H5.95832" stroke="#FC8019" stroke-width="1.25" stroke-linecap="round" stroke-linejoin="round"/>
<path d="M8.70834 9.625H9.62501" stroke="#FC8019" stroke-width="1.25" stroke-linecap="round" stroke-linejoin="round"/>
<path d="M12.375 9.625H13.2917" stroke="#FC8019" stroke-width="1.25" stroke-linecap="round" stroke-linejoin="round"/>
<path d="M5.04166 13.2913H5.95832" stroke="#FC8019" stroke-width="1.25" stroke-linecap="round" stroke-linejoin="round"/>
<path d="M8.70834 13.2913H9.62501" stroke="#FC8019" stroke-width="1.25" stroke-linecap="round" stroke-linejoin="round"/>
<path d="M16.0417 19.7083C18.0667 19.7083 19.7083 18.0667 19.7083 16.0417C19.7083 14.0166 18.0667 12.375 16.0417 12.375C14.0166 12.375 12.375 14.0166 12.375 16.0417C12.375 18.0667 14.0166 19.7083 16.0417 19.7083Z" stroke="#FC8019" stroke-width="1.25"/>
<path d="M16.9583 16.4996L16.0417 16.0413V14.6663" stroke="#FC8019" stroke-width="1.25" stroke-linecap="round" stroke-linejoin="round"/>
</svg>
