<svg width="20" height="20" viewBox="0 0 20 20" fill="none" xmlns="http://www.w3.org/2000/svg">
<path d="M2.5 5.8335H5" stroke="#FC8019" stroke-width="1.5" stroke-linecap="round" stroke-linejoin="round"/>
<path d="M2.5 14.1665H7.5" stroke="#FC8019" stroke-width="1.5" stroke-linecap="round" stroke-linejoin="round"/>
<path d="M15 14.1665H17.5" stroke="#FC8019" stroke-width="1.5" stroke-linecap="round" stroke-linejoin="round"/>
<path d="M12.5 5.8335H17.5" stroke="#FC8019" stroke-width="1.5" stroke-linecap="round" stroke-linejoin="round"/>
<path d="M5 5.8335C5 5.05693 5 4.66865 5.12687 4.36235C5.29602 3.95398 5.62048 3.62952 6.02886 3.46036C6.33515 3.3335 6.72343 3.3335 7.5 3.3335C8.27657 3.3335 8.66483 3.3335 8.97117 3.46036C9.3795 3.62952 9.704 3.95398 9.87317 4.36235C10 4.66865 10 5.05693 10 5.8335C10 6.61006 10 6.99835 9.87317 7.30464C9.704 7.71301 9.3795 8.03747 8.97117 8.20663C8.66483 8.3335 8.27657 8.3335 7.5 8.3335C6.72343 8.3335 6.33515 8.3335 6.02886 8.20663C5.62048 8.03747 5.29602 7.71301 5.12687 7.30464C5 6.99835 5 6.61006 5 5.8335Z" stroke="#FC8019" stroke-width="1.5"/>
<path d="M10 14.1665C10 13.3899 10 13.0017 10.1268 12.6953C10.296 12.287 10.6205 11.9625 11.0288 11.7933C11.3352 11.6665 11.7234 11.6665 12.5 11.6665C13.2766 11.6665 13.6648 11.6665 13.9712 11.7933C14.3795 11.9625 14.704 12.287 14.8732 12.6953C15 13.0017 15 13.3899 15 14.1665C15 14.9431 15 15.3313 14.8732 15.6377C14.704 16.046 14.3795 16.3705 13.9712 16.5397C13.6648 16.6665 13.2766 16.6665 12.5 16.6665C11.7234 16.6665 11.3352 16.6665 11.0288 16.5397C10.6205 16.3705 10.296 16.046 10.1268 15.6377C10 15.3313 10 14.9431 10 14.1665Z" stroke="#FC8019" stroke-width="1.5"/>
</svg>
