<svg width="22" height="22" viewBox="0 0 22 22" fill="none" xmlns="http://www.w3.org/2000/svg">
<path d="M7.92273 2.88386L6.35998 3.60623C3.95333 4.71866 2.75 5.27488 2.75 6.18791C2.75 7.10093 3.95333 7.65715 6.35999 8.76959L7.92273 9.49194C9.43727 10.192 10.1946 10.5421 11 10.5421C11.8054 10.5421 12.5627 10.192 14.0773 9.49194L15.64 8.76959C18.0467 7.65715 19.25 7.10093 19.25 6.18791C19.25 5.27488 18.0467 4.71866 15.64 3.60623L14.0773 2.88386C12.5627 2.18378 11.8054 1.83374 11 1.83374C10.1946 1.83374 9.43727 2.18378 7.92273 2.88386Z" stroke="#007AFF" stroke-width="1.25" stroke-linecap="round" stroke-linejoin="round"/>
<path d="M19.0557 10.1729C19.1852 10.355 19.25 10.5449 19.25 10.7537C19.25 11.6537 18.0467 12.2021 15.64 13.2987L14.0773 14.0108C12.5627 14.7008 11.8054 15.0459 11 15.0459C10.1946 15.0459 9.43727 14.7008 7.92273 14.0108L6.35999 13.2987C3.95333 12.2021 2.75 11.6537 2.75 10.7537C2.75 10.5449 2.81478 10.355 2.94433 10.1729" stroke="#007AFF" stroke-width="1.25" stroke-linecap="round" stroke-linejoin="round"/>
<path d="M18.6786 14.9102C19.0595 15.2136 19.25 15.516 19.25 15.874C19.25 16.7741 18.0467 17.3224 15.64 18.419L14.0773 19.131C12.5627 19.8212 11.8054 20.1662 11 20.1662C10.1946 20.1662 9.43727 19.8212 7.92273 19.131L6.35999 18.419C3.95333 17.3224 2.75 16.7741 2.75 15.874C2.75 15.516 2.94046 15.2136 3.32139 14.9102" stroke="#007AFF" stroke-width="1.25" stroke-linecap="round" stroke-linejoin="round"/>
</svg>
