<svg width="22" height="22" viewBox="0 0 22 22" fill="none" xmlns="http://www.w3.org/2000/svg">
<path d="M16.5 8.02634V6.23374C16.5 4.15956 16.5 3.12247 15.7893 2.4781C15.0786 1.83374 13.9348 1.83374 11.6471 1.83374H7.60294C5.31525 1.83374 4.17139 1.83374 3.4607 2.4781C2.75 3.12247 2.75 4.15956 2.75 6.23374V12.1004C2.75 14.1745 2.75 15.2117 3.4607 15.8561C4.17139 16.5004 5.31525 16.5004 7.60294 16.5004H11.6471" stroke="#AF52DE" stroke-width="1.25" stroke-linecap="round"/>
<path d="M5.5 5.5H13.75" stroke="#AF52DE" stroke-width="1.25" stroke-linecap="round" stroke-linejoin="round"/>
<path d="M5.5 9.16626H6.41667" stroke="#AF52DE" stroke-width="1.25" stroke-linecap="round" stroke-linejoin="round"/>
<path d="M9.16666 9.16626H10.0833" stroke="#AF52DE" stroke-width="1.25" stroke-linecap="round" stroke-linejoin="round"/>
<path d="M12.8333 9.16626H13.75" stroke="#AF52DE" stroke-width="1.25" stroke-linecap="round" stroke-linejoin="round"/>
<path d="M5.5 12.8337H6.41667" stroke="#AF52DE" stroke-width="1.25" stroke-linecap="round" stroke-linejoin="round"/>
<path d="M9.16666 12.8337H10.0833" stroke="#AF52DE" stroke-width="1.25" stroke-linecap="round" stroke-linejoin="round"/>
<path d="M18.9802 13.7539C18.7289 13.1165 18.0826 12.3694 16.6102 12.3694C14.8992 12.3694 14.1794 13.1532 14.0333 13.5723C13.8054 14.1326 13.7838 15.341 15.8563 15.4104C18.3314 15.4934 19.3672 15.8292 19.2395 17.1858C19.1118 18.5425 17.6852 18.7308 16.6101 18.8041C15.5057 18.7728 14.1398 18.5418 13.75 17.37M16.4943 11V12.3167M16.5023 18.7998V20.1667" stroke="#AF52DE" stroke-width="1.25" stroke-linecap="round"/>
</svg>
